<svg xmlns="http://www.w3.org/2000/svg" viewBox="0 0 32 32" shape-rendering="geometricPrecision">
  <defs>
    <linearGradient id="icon10-bg" x1="0" y1="1" x2="1" y2="0">
      <stop offset="0" stop-color="#07080d" />
      <stop offset="1" stop-color="#141722" />
    </linearGradient>
    <radialGradient id="icon10-glow" cx="50%" cy="50%" r="60%">
      <stop offset="0" stop-color="#8c9cff" stop-opacity="0.7" />
      <stop offset="1" stop-color="#04060a" stop-opacity="0.1" />
    </radialGradient>
  </defs>
  <rect width="32" height="32" rx="6" fill="url(#icon10-bg)" />
  <rect x="1.5" y="1.5" width="29" height="29" rx="6" fill="#05070b" stroke="#7b89ff" stroke-width="1.5" opacity="0.85" />
  <circle cx="16" cy="16" r="11.1" fill="url(#icon10-glow)" />
  <path d="M16 7.8l6.2 4.2-1.4 8.4-4.8 2.4-4.8-2.4-1.4-8.4z" fill="#0b0f18" stroke="#8895ff" stroke-width="0.9" />
  <path d="M16 11.3l2.6 2-2.6 8.1-2.6-8.1z" fill="#1a2230" />
  <path d="M13 22l3 4.5 3-4.5" fill="none" stroke="#7b89ff" stroke-width="1.1" stroke-linecap="round" />
  <circle cx="16" cy="16" r="2.6" fill="#04060a" stroke="#8895ff" stroke-width="0.8" />
  <circle cx="16" cy="16" r="1" fill="#7b89ff" />
  <path d="M12 13l2 1.4-1 3-2.4-2z" fill="#11182a" />
  <path d="M20 13l-2 1.4 1 3 2.4-2z" fill="#11182a" />
</svg>
