<svg xmlns="http://www.w3.org/2000/svg" viewBox="0 0 32 32" shape-rendering="geometricPrecision">
  <defs>
    <linearGradient id="icon06-bg" x1="0" y1="0" x2="1" y2="1">
      <stop offset="0" stop-color="#111e2a" />
      <stop offset="1" stop-color="#1c3646" />
    </linearGradient>
    <radialGradient id="icon06-glow" cx="50%" cy="50%" r="60%">
      <stop offset="0" stop-color="#7cd3ff" stop-opacity="0.9" />
      <stop offset="1" stop-color="#08111a" stop-opacity="0.15" />
    </radialGradient>
  </defs>
  <rect width="32" height="32" rx="6" fill="url(#icon06-bg)" />
  <rect x="1.5" y="1.5" width="29" height="29" rx="6" fill="#0d1a24" stroke="#7cd3ff" stroke-width="1.5" opacity="0.9" />
  <circle cx="16" cy="16" r="11.1" fill="url(#icon06-glow)" />
  <path d="M10.5 11l4.3 1.5-1.2 3.3-4.1-0.6z" fill="#103752" stroke="#9ae1ff" stroke-width="0.8" />
  <path d="M21.5 11l-4.3 1.5 1.2 3.3 4.1-0.6z" fill="#103752" stroke="#9ae1ff" stroke-width="0.8" />
  <path d="M12.6 20.2l2.4-2.6 2.4 2.6-2.4 2.6z" fill="#ffbe7d" stroke="#ffe7c7" stroke-width="0.8" />
  <path d="M16 9l2.6 1.2L16 20l-2.6-9.8z" fill="#ffd9ae" />
  <circle cx="16" cy="15.5" r="2.8" fill="#0a1a24" stroke="#ffe7c7" stroke-width="0.8" />
  <path d="M12 23l4 5 4-5" fill="none" stroke="#ffbe7d" stroke-width="1.1" stroke-linecap="round" />
  <path d="M9.5 14.5l1.2 1.2L9 18l-1.8-1.8z" fill="#5fc9ff" />
  <path d="M22.5 14.5l-1.2 1.2L23 18l1.8-1.8z" fill="#5fc9ff" />
</svg>
