<svg xmlns="http://www.w3.org/2000/svg" viewBox="0 0 32 32" shape-rendering="geometricPrecision">
  <defs>
    <linearGradient id="icon05-bg" x1="0" y1="1" x2="1" y2="0">
      <stop offset="0" stop-color="#0f1f16" />
      <stop offset="1" stop-color="#22442c" />
    </linearGradient>
    <radialGradient id="icon05-glow" cx="50%" cy="50%" r="60%">
      <stop offset="0" stop-color="#95ffbf" stop-opacity="0.9" />
      <stop offset="1" stop-color="#09140d" stop-opacity="0.1" />
    </radialGradient>
  </defs>
  <rect width="32" height="32" rx="6" fill="url(#icon05-bg)" />
  <rect x="1.5" y="1.5" width="29" height="29" rx="6" fill="#0b140e" stroke="#8affb7" stroke-width="1.5" opacity="0.9" />
  <circle cx="16" cy="16" r="11" fill="url(#icon05-glow)" />
  <path d="M11.5 8.5l3.8 6-3.8 7-2.6-2.2 2-4.1-2-3.4z" fill="#1c3322" stroke="#9bfec4" stroke-width="0.9" stroke-linejoin="round" />
  <path d="M20.5 8.5l-3.8 6 3.8 7 2.6-2.2-2-4.1 2-3.4z" fill="#1c3322" stroke="#9bfec4" stroke-width="0.9" stroke-linejoin="round" />
  <path d="M15 10l2 0.6-1 11.8-2.2-3.7z" fill="#aaffd3" />
  <path d="M17 10l-2 0.6 1 11.8 2.2-3.7z" fill="#8effc5" />
  <path d="M13 22l3 5 3-5" fill="none" stroke="#8affb7" stroke-width="1.1" stroke-linecap="round" />
  <circle cx="16" cy="16" r="2.6" fill="#07110b" stroke="#a0ffd2" stroke-width="0.8" />
  <circle cx="16" cy="16" r="1" fill="#8affb7" />
</svg>
