<svg xmlns="http://www.w3.org/2000/svg" viewBox="0 0 32 32" shape-rendering="geometricPrecision">
  <defs>
    <linearGradient id="icon09-bg" x1="0" y1="0" x2="1" y2="1">
      <stop offset="0" stop-color="#130f1f" />
      <stop offset="1" stop-color="#1e1730" />
    </linearGradient>
    <radialGradient id="icon09-glow" cx="50%" cy="50%" r="60%">
      <stop offset="0" stop-color="#d8b3ff" stop-opacity="0.9" />
      <stop offset="1" stop-color="#0b0712" stop-opacity="0.12" />
    </radialGradient>
  </defs>
  <rect width="32" height="32" rx="6" fill="url(#icon09-bg)" />
  <rect x="1.5" y="1.5" width="29" height="29" rx="6" fill="#0e0b15" stroke="#d8b3ff" stroke-width="1.5" opacity="0.9" />
  <circle cx="16" cy="16" r="11.2" fill="url(#icon09-glow)" />
  <path d="M16 8.8c4.8 0 8.6 3.6 8.6 7.2s-3.8 7.2-8.6 7.2-8.6-3.6-8.6-7.2 3.8-7.2 8.6-7.2z" fill="#19102b" stroke="#d8b3ff" stroke-width="0.9" />
  <path d="M16 10.8c3.4 0 6.2 2.5 6.2 5.2s-2.8 5.2-6.2 5.2-6.2-2.5-6.2-5.2 2.8-5.2 6.2-5.2z" fill="#241538" />
  <path d="M16 13c2.2 0 4 1.6 4 3.5s-1.8 3.5-4 3.5-4-1.6-4-3.5 1.8-3.5 4-3.5z" fill="#4a2b6a" />
  <circle cx="16" cy="16.5" r="2.3" fill="#12091c" stroke="#f2e0ff" stroke-width="0.8" />
  <circle cx="16" cy="16.5" r="1" fill="#d8b3ff" />
  <path d="M11.5 22.5l3.5 3.2 3.5-3.2" fill="none" stroke="#d8b3ff" stroke-width="1.1" stroke-linecap="round" />
  <circle cx="16" cy="25.3" r="1.2" fill="#d8b3ff" />
</svg>
