<svg xmlns="http://www.w3.org/2000/svg" viewBox="0 0 32 32" shape-rendering="geometricPrecision">
  <defs>
    <linearGradient id="icon01-bg" x1="0" y1="0" x2="1" y2="1">
      <stop offset="0" stop-color="#0b1c2b" />
      <stop offset="1" stop-color="#13354d" />
    </linearGradient>
    <radialGradient id="icon01-glow" cx="50%" cy="50%" r="60%">
      <stop offset="0" stop-color="#6fffff" stop-opacity="0.95" />
      <stop offset="1" stop-color="#081119" stop-opacity="0.1" />
    </radialGradient>
    <linearGradient id="icon01-blade" x1="0" y1="0" x2="1" y2="1">
      <stop offset="0" stop-color="#f5f1ff" />
      <stop offset="1" stop-color="#ff9f6e" />
    </linearGradient>
  </defs>
  <rect width="32" height="32" rx="6" fill="url(#icon01-bg)" />
  <rect x="1.5" y="1.5" width="29" height="29" rx="6" fill="#0b1823" stroke="#62f5ff" stroke-width="1.5" opacity="0.85" />
  <circle cx="16" cy="16" r="11.5" fill="url(#icon01-glow)" />
  <path d="M16 6l4.6 7.4-4.6 3.6-4.6-3.6z" fill="#112a3c" stroke="#7ce8ff" stroke-width="1" stroke-linejoin="round" />
  <path d="M16 11l2 11-2 4-2-4z" fill="url(#icon01-blade)" stroke="#ffe7d2" stroke-width="0.8" stroke-linejoin="round" />
  <path d="M10 23.8l-2 1.4L9 27l3.4-1.6z" fill="#ff9f6e" opacity="0.7" />
  <path d="M22 23.8l2 1.4L23 27l-3.4-1.6z" fill="#ff9f6e" opacity="0.7" />
  <circle cx="16" cy="16" r="3.2" fill="#050f18" stroke="#ffe7d2" stroke-width="0.8" />
  <circle cx="16" cy="16" r="1.1" fill="#7ce8ff" />
</svg>
