<svg xmlns="http://www.w3.org/2000/svg" viewBox="0 0 32 32" shape-rendering="geometricPrecision">
  <defs>
    <linearGradient id="icon04-bg" x1="0" y1="0" x2="1" y2="0">
      <stop offset="0" stop-color="#102338" />
      <stop offset="1" stop-color="#223b66" />
    </linearGradient>
    <radialGradient id="icon04-glow" cx="50%" cy="50%" r="60%">
      <stop offset="0" stop-color="#b0c5ff" stop-opacity="0.9" />
      <stop offset="1" stop-color="#0b1624" stop-opacity="0.1" />
    </radialGradient>
  </defs>
  <rect width="32" height="32" rx="6" fill="url(#icon04-bg)" />
  <rect x="1.5" y="1.5" width="29" height="29" rx="6" fill="#0e1a29" stroke="#92c2ff" stroke-width="1.5" opacity="0.9" />
  <circle cx="16" cy="16" r="11.2" fill="url(#icon04-glow)" />
  <path d="M16 8c4.2 0 6.8 2.8 6.8 6.1 0 3.8-2.9 5.5-6.4 5.9l-0.4 4.6-4-2.4 0.9-4.5c-2.1-0.9-3.7-2.9-3.7-5.1C9.2 10.6 12.1 8 16 8z" fill="#122c46" stroke="#9ccfff" stroke-width="0.9" stroke-linejoin="round" />
  <path d="M16 11.5c2 0 3.5 1.2 3.5 2.7 0 1.8-1.3 2.7-3.1 2.8l-0.4 2.6-2.2-1.3 0.6-2.4c-1-0.4-1.8-1.4-1.8-2.5 0-1.4 1.5-1.9 3.4-1.9z" fill="#274b72" />
  <path d="M16 12.5c1.2 0 2 0.7 2 1.5 0 1-0.7 1.5-1.7 1.5l-0.2 1.2-1-0.6 0.2-1.1c-0.6-0.2-1-0.7-1-1.3 0-0.8 0.7-1.2 1.7-1.2z" fill="#8ed4ff" />
  <path d="M12.4 23.3l3.6 3.2 3.6-3.2" fill="none" stroke="#8ed4ff" stroke-width="1.1" stroke-linecap="round" />
  <circle cx="16" cy="25.7" r="1.4" fill="#8ed4ff" />
</svg>
