<svg xmlns="http://www.w3.org/2000/svg" viewBox="0 0 32 32" shape-rendering="geometricPrecision">
  <defs>
    <linearGradient id="icon12-bg" x1="0" y1="1" x2="1" y2="0">
      <stop offset="0" stop-color="#1c1414" />
      <stop offset="1" stop-color="#311a1a" />
    </linearGradient>
    <radialGradient id="icon12-glow" cx="50%" cy="50%" r="60%">
      <stop offset="0" stop-color="#ffb0a0" stop-opacity="0.85" />
      <stop offset="1" stop-color="#120707" stop-opacity="0.12" />
    </radialGradient>
  </defs>
  <rect width="32" height="32" rx="6" fill="url(#icon12-bg)" />
  <rect x="1.5" y="1.5" width="29" height="29" rx="6" fill="#140b0b" stroke="#ffb0a0" stroke-width="1.5" opacity="0.9" />
  <circle cx="16" cy="16" r="11.1" fill="url(#icon12-glow)" />
  <path d="M13 8.8l3 0.9 3-0.9 2.5 5.2-2.5 7-3 1.6-3-1.6-2.5-7z" fill="#2c1414" stroke="#ffb0a0" stroke-width="0.9" />
  <path d="M16 10.1l1.1 10.6-1.1 3.4-1.1-3.4z" fill="#ffd1c6" />
  <path d="M11 13l2 1.2-1.1 3.8-2.2-2.6z" fill="#f6b0a0" />
  <path d="M21 13l-2 1.2 1.1 3.8 2.2-2.6z" fill="#f6b0a0" />
  <path d="M13 21.8l3 4.6 3-4.6" fill="none" stroke="#ffd1c6" stroke-width="1.1" stroke-linecap="round" />
  <path d="M16 7l5 1.2-1.8 3.2-5-1.4z" fill="#ff7966" stroke="#ffd1c6" stroke-width="0.8" />
  <circle cx="16" cy="16" r="2.7" fill="#1d0c0c" stroke="#ffd1c6" stroke-width="0.8" />
  <circle cx="16" cy="16" r="1.1" fill="#ffb0a0" />
</svg>
