<svg width="360" height="480" viewBox="0 0 360 480" fill="none" xmlns="http://www.w3.org/2000/svg">
  <defs>
    <linearGradient id="grad-camp-chest-panel" x1="0" y1="0" x2="0" y2="1" gradientUnits="objectBoundingBox">
      <stop offset="0" stop-color="#6D24B2"/>
      <stop offset="1" stop-color="#0A0B2E"/>
    </linearGradient>
    <linearGradient id="shine-camp-chest-panel" x1="0" y1="0" x2="0" y2="1" gradientUnits="objectBoundingBox">
      <stop offset="0" stop-color="#FFFFFF" stop-opacity="0.65"/>
      <stop offset="0.5" stop-color="#FFFFFF" stop-opacity="0.15"/>
      <stop offset="1" stop-color="#FFFFFF" stop-opacity="0"/>
    </linearGradient>
    <pattern id="grid-camp-chest-panel" width="8" height="8" patternUnits="userSpaceOnUse">
      <rect width="8" height="8" fill="#FFFFFF" fill-opacity="0.05"/>
      <rect width="4" height="4" fill="#000000" fill-opacity="0.12"/>
      <rect x="4" y="4" width="4" height="4" fill="#000000" fill-opacity="0.08"/>
    </pattern>
    <radialGradient id="spark-camp-chest-panel" cx="0.5" cy="0.5" r="0.6">
      <stop offset="0" stop-color="#FFFFFF" stop-opacity="0.9"/>
      <stop offset="1" stop-color="#FFFFFF" stop-opacity="0"/>
    </radialGradient>
  </defs>

    <rect x="4" y="4" width="352.00" height="472.00" rx="43.20" fill="url(#grad-camp-chest-panel)" stroke="#FEDA4A" stroke-width="8"/>
    <rect x="16" y="16" width="328.00" height="448.00" rx="33.20" fill="url(#grid-camp-chest-panel)" fill-opacity="0.35" stroke="#05060F" stroke-opacity="0.3" stroke-width="2"/>
    <rect x="16" y="16" width="328.00" height="448.00" rx="33.20" fill="url(#shine-camp-chest-panel)"/>
    <rect x="16" y="16" width="328.00" height="57.60" rx="19.92" fill="#E52B20" fill-opacity="0.65"/>
    <rect x="16" y="406.40" width="328.00" height="57.60" rx="19.92" fill="#1F2F98" fill-opacity="0.85"/>
    <g transform="translate(16 16)" opacity="0.9"><path d="M26.24 26.24H301.76" stroke="#00F6FF" stroke-width="2" stroke-linecap="round" stroke-dasharray="8 6"/><path d="M26.24 224.00H312.26" stroke="#00F6FF" stroke-width="2" stroke-linecap="round" stroke-dasharray="6 6"/><circle cx="28.86" cy="224.00" r="4" fill="#FEDA4A" stroke="#00F6FF" stroke-width="2"/><circle cx="312.26" cy="224.00" r="4" fill="#00F6FF" stroke="#00F6FF" stroke-width="2"/><path d="M164.00 421.76V20.99" stroke="#00F6FF" stroke-width="2" stroke-linecap="round" stroke-dasharray="6 4"/><circle cx="164.00" cy="20.99" r="3" fill="#FF7F3F" stroke="#00F6FF" stroke-width="1.5"/><rect x="106.88" y="20.99" width="4.92" height="406.02" fill="#05060F" stroke="#00F6FF" stroke-width="1.5" rx="2.46"/><circle cx="106.88" cy="112.00" r="2.4" fill="#00F6FF"/><circle cx="106.88" cy="336.00" r="2.4" fill="#FF7F3F"/><rect x="187.52" y="20.99" width="4.92" height="406.02" fill="#05060F" stroke="#00F6FF" stroke-width="1.5" rx="2.46"/><circle cx="187.52" cy="112.00" r="2.4" fill="#00F6FF"/><circle cx="187.52" cy="336.00" r="2.4" fill="#FF7F3F"/><path d="M26.24 421.76L98.40 432.26" stroke="#00F6FF" stroke-width="1.8" stroke-linecap="round" stroke-dasharray="4 4"/><path d="M301.76 26.24L229.60 15.74" stroke="#00F6FF" stroke-width="1.8" stroke-linecap="round" stroke-dasharray="4 4"/><rect x="28.86" y="98.56" width="39.36" height="39.36" rx="6" fill="#05060F" stroke="#00F6FF" stroke-width="2"/><rect x="35.95" y="105.64" width="25.19" height="25.19" rx="4" fill="#00F6FF" fill-opacity="0.35" stroke="#00F6FF" stroke-opacity="0.6" stroke-width="1.4"/><path d="M48.54 137.92V145.00" stroke="#00F6FF" stroke-width="1.5" stroke-linecap="round" stroke-dasharray="3 3"/><path d="M68.22 118.24H75.31" stroke="#00F6FF" stroke-width="1.5" stroke-linecap="round" stroke-dasharray="3 3"/><path d="M57.53,115.32L52.29,119.46 54.10,125.88 48.54,122.18 42.99,125.88 44.80,119.46 39.56,115.32 46.23,115.06 48.54,108.79 50.86,115.06Z" fill="#FEDA4A" fill-opacity="0.65" stroke="#F3A400" stroke-width="1.5"/><rect x="259.78" y="277.76" width="39.36" height="39.36" rx="6" fill="#05060F" stroke="#00F6FF" stroke-width="2"/><rect x="266.86" y="284.84" width="25.19" height="25.19" rx="4" fill="#FF7F3F" fill-opacity="0.35" stroke="#FF7F3F" stroke-opacity="0.6" stroke-width="1.4"/><path d="M279.46 317.12V324.20" stroke="#00F6FF" stroke-width="1.5" stroke-linecap="round" stroke-dasharray="3 3"/><path d="M299.14 297.44H306.22" stroke="#00F6FF" stroke-width="1.5" stroke-linecap="round" stroke-dasharray="3 3"/><path d="M288.44,294.52L283.20,298.66 285.01,305.08 279.46,301.38 273.90,305.08 275.71,298.66 270.47,294.52 277.14,294.26 279.46,287.99 281.77,294.26Z" fill="#FEDA4A" fill-opacity="0.65" stroke="#F3A400" stroke-width="1.5"/></g>
    
    <path d="M70.59,77.50L55.18,90.29 60.13,109.70 43.20,99.00 26.27,109.70 31.22,90.29 15.81,77.50 35.79,76.21 43.20,57.60 50.61,76.21Z" fill="#FEDA4A" stroke="#F3A400" stroke-width="3"/>
    <path d="M341.45,398.84L324.03,401.63 319.43,418.66 311.40,402.95 293.78,403.85 306.24,391.35 299.94,374.87 315.67,382.86 329.40,371.78 326.67,389.21Z" fill="#FF7F3F" stroke="#F36228" stroke-width="3"/>
  
    <rect x="259.20" y="57.60" width="64.80" height="64.80" rx="12.96" fill="#FEDA4A" stroke="#F0B400" stroke-width="6.48"/><rect x="270.00" y="68.40" width="43.20" height="43.20" rx="8.64" fill="#FFEF9A"/><rect x="272.16" y="79.20" width="10.80" height="10.80" fill="#E52B20" fill-opacity="0.8"/><rect x="282.96" y="79.20" width="10.80" height="10.80" fill="#E52B20" fill-opacity="0.8"/><rect x="293.76" y="79.20" width="10.80" height="10.80" fill="#E52B20" fill-opacity="0.8"/><rect x="272.16" y="90.00" width="10.80" height="10.80" fill="#E52B20" fill-opacity="0.8"/><rect x="282.96" y="90.00" width="10.80" height="10.80" fill="#E52B20" fill-opacity="0.8"/><rect x="293.76" y="90.00" width="10.80" height="10.80" fill="#E52B20" fill-opacity="0.8"/><rect x="282.96" y="100.80" width="10.80" height="10.80" fill="#E52B20" fill-opacity="0.8"/><rect x="282.96" y="111.60" width="10.80" height="10.80" fill="#E52B20" fill-opacity="0.8"/>
  
</svg>
