<svg width="720" height="540" viewBox="0 0 720 540" fill="none" xmlns="http://www.w3.org/2000/svg">
  <defs>
    <linearGradient id="grad-combat-window-background" x1="0" y1="0" x2="0" y2="1" gradientUnits="objectBoundingBox">
      <stop offset="0" stop-color="#0A0B2E"/>
      <stop offset="1" stop-color="#1F2F98"/>
    </linearGradient>
    <linearGradient id="shine-combat-window-background" x1="0" y1="0" x2="0" y2="1" gradientUnits="objectBoundingBox">
      <stop offset="0" stop-color="#FFFFFF" stop-opacity="0.65"/>
      <stop offset="0.5" stop-color="#FFFFFF" stop-opacity="0.15"/>
      <stop offset="1" stop-color="#FFFFFF" stop-opacity="0"/>
    </linearGradient>
    <pattern id="grid-combat-window-background" width="8" height="8" patternUnits="userSpaceOnUse">
      <rect width="8" height="8" fill="#FFFFFF" fill-opacity="0.05"/>
      <rect width="4" height="4" fill="#000000" fill-opacity="0.12"/>
      <rect x="4" y="4" width="4" height="4" fill="#000000" fill-opacity="0.08"/>
    </pattern>
    <radialGradient id="spark-combat-window-background" cx="0.5" cy="0.5" r="0.6">
      <stop offset="0" stop-color="#FFFFFF" stop-opacity="0.9"/>
      <stop offset="1" stop-color="#FFFFFF" stop-opacity="0"/>
    </radialGradient>
  </defs>

    <rect x="4" y="4" width="712.00" height="532.00" rx="64.80" fill="url(#grad-combat-window-background)" stroke="#E52B20" stroke-width="8"/>
    <rect x="16" y="16" width="688.00" height="508.00" rx="54.80" fill="url(#grid-combat-window-background)" fill-opacity="0.35" stroke="#05060F" stroke-opacity="0.3" stroke-width="2"/>
    <rect x="16" y="16" width="688.00" height="508.00" rx="54.80" fill="url(#shine-combat-window-background)"/>
    <rect x="16" y="16" width="688.00" height="64.80" rx="32.88" fill="#E52B20" fill-opacity="0.65"/>
    <rect x="16" y="459.20" width="688.00" height="64.80" rx="32.88" fill="#1C1F3A" fill-opacity="0.85"/>
    <g transform="translate(16 16)" opacity="0.9"><path d="M40.64 40.64H647.36" stroke="#00F6FF" stroke-width="2" stroke-linecap="round" stroke-dasharray="8 6"/><path d="M40.64 254.00H663.62" stroke="#00F6FF" stroke-width="2" stroke-linecap="round" stroke-dasharray="6 6"/><circle cx="44.70" cy="254.00" r="4" fill="#FEDA4A" stroke="#00F6FF" stroke-width="2"/><circle cx="663.62" cy="254.00" r="4" fill="#00F6FF" stroke="#00F6FF" stroke-width="2"/><path d="M344.00 467.36V32.51" stroke="#00F6FF" stroke-width="2" stroke-linecap="round" stroke-dasharray="6 4"/><circle cx="344.00" cy="32.51" r="3" fill="#FF7F3F" stroke="#00F6FF" stroke-width="1.5"/><rect x="164.48" y="32.51" width="7.62" height="442.98" fill="#05060F" stroke="#00F6FF" stroke-width="1.5" rx="3.81"/><circle cx="164.48" cy="127.00" r="2.4" fill="#00F6FF"/><circle cx="164.48" cy="381.00" r="2.4" fill="#FF7F3F"/><rect x="288.32" y="32.51" width="7.62" height="442.98" fill="#05060F" stroke="#00F6FF" stroke-width="1.5" rx="3.81"/><circle cx="288.32" cy="127.00" r="2.4" fill="#00F6FF"/><circle cx="288.32" cy="381.00" r="2.4" fill="#FF7F3F"/><path d="M40.64 467.36L152.40 483.62" stroke="#00F6FF" stroke-width="1.8" stroke-linecap="round" stroke-dasharray="4 4"/><path d="M647.36 40.64L535.60 24.38" stroke="#00F6FF" stroke-width="1.8" stroke-linecap="round" stroke-dasharray="4 4"/><rect x="44.70" y="111.76" width="60.96" height="60.96" rx="6" fill="#05060F" stroke="#00F6FF" stroke-width="2"/><rect x="55.68" y="122.73" width="39.01" height="39.01" rx="4" fill="#00F6FF" fill-opacity="0.35" stroke="#00F6FF" stroke-opacity="0.6" stroke-width="1.4"/><path d="M75.18 172.72V183.69" stroke="#00F6FF" stroke-width="1.5" stroke-linecap="round" stroke-dasharray="3 3"/><path d="M105.66 142.24H116.64" stroke="#00F6FF" stroke-width="1.5" stroke-linecap="round" stroke-dasharray="3 3"/><path d="M89.10,137.72L80.98,144.12 83.78,154.08 75.18,148.34 66.58,154.08 69.39,144.12 61.27,137.72 71.60,137.31 75.18,127.61 78.77,137.31Z" fill="#FEDA4A" fill-opacity="0.65" stroke="#F3A400" stroke-width="1.5"/><rect x="582.34" y="314.96" width="60.96" height="60.96" rx="6" fill="#05060F" stroke="#00F6FF" stroke-width="2"/><rect x="593.31" y="325.93" width="39.01" height="39.01" rx="4" fill="#FF7F3F" fill-opacity="0.35" stroke="#FF7F3F" stroke-opacity="0.6" stroke-width="1.4"/><path d="M612.82 375.92V386.89" stroke="#00F6FF" stroke-width="1.5" stroke-linecap="round" stroke-dasharray="3 3"/><path d="M643.30 345.44H654.27" stroke="#00F6FF" stroke-width="1.5" stroke-linecap="round" stroke-dasharray="3 3"/><path d="M626.73,340.92L618.61,347.32 621.42,357.28 612.82,351.54 604.22,357.28 607.02,347.32 598.90,340.92 609.23,340.51 612.82,330.81 616.40,340.51Z" fill="#FEDA4A" fill-opacity="0.65" stroke="#F3A400" stroke-width="1.5"/></g>
    
    <path d="M127.49,83.85L104.37,103.04 111.79,132.15 86.40,116.10 61.01,132.15 68.43,103.04 45.31,83.85 75.29,81.91 86.40,54.00 97.51,81.91Z" fill="#FF7F3F" stroke="#F3A400" stroke-width="3"/>
    <path d="M670.57,450.66L644.44,454.84 637.55,480.39 625.50,456.83 599.07,458.17 617.75,439.43 608.31,414.71 631.91,426.69 652.50,410.06 648.40,436.21Z" fill="#FF7F3F" stroke="#F36228" stroke-width="3"/>
  
    <rect x="518.40" y="64.80" width="97.20" height="97.20" rx="19.44" fill="#FEDA4A" stroke="#F0B400" stroke-width="9.72"/><rect x="534.60" y="81.00" width="64.80" height="64.80" rx="12.96" fill="#FFEF9A"/><rect x="537.84" y="97.20" width="16.20" height="16.20" fill="#E52B20" fill-opacity="0.8"/><rect x="554.04" y="97.20" width="16.20" height="16.20" fill="#E52B20" fill-opacity="0.8"/><rect x="570.24" y="97.20" width="16.20" height="16.20" fill="#E52B20" fill-opacity="0.8"/><rect x="537.84" y="113.40" width="16.20" height="16.20" fill="#E52B20" fill-opacity="0.8"/><rect x="554.04" y="113.40" width="16.20" height="16.20" fill="#E52B20" fill-opacity="0.8"/><rect x="570.24" y="113.40" width="16.20" height="16.20" fill="#E52B20" fill-opacity="0.8"/><rect x="554.04" y="129.60" width="16.20" height="16.20" fill="#E52B20" fill-opacity="0.8"/><rect x="554.04" y="145.80" width="16.20" height="16.20" fill="#E52B20" fill-opacity="0.8"/>
  
</svg>
