<svg width="720" height="520" viewBox="0 0 720 520" fill="none" xmlns="http://www.w3.org/2000/svg">
  <defs>
    <linearGradient id="grad-dialog-window-background" x1="0" y1="0" x2="0" y2="1" gradientUnits="objectBoundingBox">
      <stop offset="0" stop-color="#6D24B2"/>
      <stop offset="1" stop-color="#0A0B2E"/>
    </linearGradient>
    <linearGradient id="shine-dialog-window-background" x1="0" y1="0" x2="0" y2="1" gradientUnits="objectBoundingBox">
      <stop offset="0" stop-color="#FFFFFF" stop-opacity="0.65"/>
      <stop offset="0.5" stop-color="#FFFFFF" stop-opacity="0.15"/>
      <stop offset="1" stop-color="#FFFFFF" stop-opacity="0"/>
    </linearGradient>
    <pattern id="grid-dialog-window-background" width="8" height="8" patternUnits="userSpaceOnUse">
      <rect width="8" height="8" fill="#FFFFFF" fill-opacity="0.05"/>
      <rect width="4" height="4" fill="#000000" fill-opacity="0.12"/>
      <rect x="4" y="4" width="4" height="4" fill="#000000" fill-opacity="0.08"/>
    </pattern>
    <radialGradient id="spark-dialog-window-background" cx="0.5" cy="0.5" r="0.6">
      <stop offset="0" stop-color="#FFFFFF" stop-opacity="0.9"/>
      <stop offset="1" stop-color="#FFFFFF" stop-opacity="0"/>
    </radialGradient>
  </defs>

    <rect x="4" y="4" width="712.00" height="512.00" rx="62.40" fill="url(#grad-dialog-window-background)" stroke="#38A7FF" stroke-width="8"/>
    <rect x="16" y="16" width="688.00" height="488.00" rx="52.40" fill="url(#grid-dialog-window-background)" fill-opacity="0.35" stroke="#05060F" stroke-opacity="0.3" stroke-width="2"/>
    <rect x="16" y="16" width="688.00" height="488.00" rx="52.40" fill="url(#shine-dialog-window-background)"/>
    <rect x="16" y="16" width="688.00" height="62.40" rx="31.44" fill="#FEDA4A" fill-opacity="0.65"/>
    <rect x="16" y="441.60" width="688.00" height="62.40" rx="31.44" fill="#1F2F98" fill-opacity="0.85"/>
    <g transform="translate(16 16)" opacity="0.9"><path d="M39.04 39.04H648.96" stroke="#00F6FF" stroke-width="2" stroke-linecap="round" stroke-dasharray="8 6"/><path d="M39.04 244.00H664.58" stroke="#00F6FF" stroke-width="2" stroke-linecap="round" stroke-dasharray="6 6"/><circle cx="42.94" cy="244.00" r="4" fill="#FEDA4A" stroke="#00F6FF" stroke-width="2"/><circle cx="664.58" cy="244.00" r="4" fill="#00F6FF" stroke="#00F6FF" stroke-width="2"/><path d="M344.00 448.96V31.23" stroke="#00F6FF" stroke-width="2" stroke-linecap="round" stroke-dasharray="6 4"/><circle cx="344.00" cy="31.23" r="3" fill="#FF7F3F" stroke="#00F6FF" stroke-width="1.5"/><rect x="162.88" y="31.23" width="7.32" height="425.54" fill="#05060F" stroke="#00F6FF" stroke-width="1.5" rx="3.66"/><circle cx="162.88" cy="122.00" r="2.4" fill="#00F6FF"/><circle cx="162.88" cy="366.00" r="2.4" fill="#FF7F3F"/><rect x="286.72" y="31.23" width="7.32" height="425.54" fill="#05060F" stroke="#00F6FF" stroke-width="1.5" rx="3.66"/><circle cx="286.72" cy="122.00" r="2.4" fill="#00F6FF"/><circle cx="286.72" cy="366.00" r="2.4" fill="#FF7F3F"/><path d="M39.04 448.96L146.40 464.58" stroke="#00F6FF" stroke-width="1.8" stroke-linecap="round" stroke-dasharray="4 4"/><path d="M648.96 39.04L541.60 23.42" stroke="#00F6FF" stroke-width="1.8" stroke-linecap="round" stroke-dasharray="4 4"/><rect x="42.94" y="107.36" width="58.56" height="58.56" rx="6" fill="#05060F" stroke="#00F6FF" stroke-width="2"/><rect x="53.48" y="117.90" width="37.48" height="37.48" rx="4" fill="#00F6FF" fill-opacity="0.35" stroke="#00F6FF" stroke-opacity="0.6" stroke-width="1.4"/><path d="M72.22 165.92V176.46" stroke="#00F6FF" stroke-width="1.5" stroke-linecap="round" stroke-dasharray="3 3"/><path d="M101.50 136.64H112.04" stroke="#00F6FF" stroke-width="1.5" stroke-linecap="round" stroke-dasharray="3 3"/><path d="M85.59,132.30L77.79,138.45 80.48,148.01 72.22,142.50 63.96,148.01 66.65,138.45 58.86,132.30 68.78,131.90 72.22,122.59 75.67,131.90Z" fill="#FEDA4A" fill-opacity="0.65" stroke="#F3A400" stroke-width="1.5"/><rect x="586.50" y="302.56" width="58.56" height="58.56" rx="6" fill="#05060F" stroke="#00F6FF" stroke-width="2"/><rect x="597.04" y="313.10" width="37.48" height="37.48" rx="4" fill="#FF7F3F" fill-opacity="0.35" stroke="#FF7F3F" stroke-opacity="0.6" stroke-width="1.4"/><path d="M615.78 361.12V371.66" stroke="#00F6FF" stroke-width="1.5" stroke-linecap="round" stroke-dasharray="3 3"/><path d="M645.06 331.84H655.60" stroke="#00F6FF" stroke-width="1.5" stroke-linecap="round" stroke-dasharray="3 3"/><path d="M629.14,327.50L621.35,333.65 624.04,343.21 615.78,337.70 607.52,343.21 610.21,333.65 602.41,327.50 612.33,327.10 615.78,317.79 619.22,327.10Z" fill="#FEDA4A" fill-opacity="0.65" stroke="#F3A400" stroke-width="1.5"/></g>
    
    <path d="M125.96,80.74L103.71,99.22 110.85,127.26 86.40,111.80 61.95,127.26 69.09,99.22 46.84,80.74 75.70,78.88 86.40,52.00 97.10,78.88Z" fill="#FEDA4A" stroke="#F3A400" stroke-width="3"/>
    <path d="M669.20,433.97L644.04,437.99 637.40,462.60 625.80,439.91 600.35,441.21 618.34,423.16 609.24,399.35 631.97,410.89 651.80,394.88 647.85,420.05Z" fill="#FF7F3F" stroke="#F36228" stroke-width="3"/>
  
    <rect x="518.40" y="62.40" width="93.60" height="93.60" rx="18.72" fill="#FEDA4A" stroke="#F0B400" stroke-width="9.36"/><rect x="534.00" y="78.00" width="62.40" height="62.40" rx="12.48" fill="#FFEF9A"/><rect x="537.12" y="93.60" width="15.60" height="15.60" fill="#E52B20" fill-opacity="0.8"/><rect x="552.72" y="93.60" width="15.60" height="15.60" fill="#E52B20" fill-opacity="0.8"/><rect x="568.32" y="93.60" width="15.60" height="15.60" fill="#E52B20" fill-opacity="0.8"/><rect x="537.12" y="109.20" width="15.60" height="15.60" fill="#E52B20" fill-opacity="0.8"/><rect x="552.72" y="109.20" width="15.60" height="15.60" fill="#E52B20" fill-opacity="0.8"/><rect x="568.32" y="109.20" width="15.60" height="15.60" fill="#E52B20" fill-opacity="0.8"/><rect x="552.72" y="124.80" width="15.60" height="15.60" fill="#E52B20" fill-opacity="0.8"/><rect x="552.72" y="140.40" width="15.60" height="15.60" fill="#E52B20" fill-opacity="0.8"/>
  
</svg>
