<svg width="96" height="96" viewBox="0 0 96 96" fill="none" xmlns="http://www.w3.org/2000/svg">
  <defs>
    <radialGradient id="ring-dialog-portrait-frame" cx="0.5" cy="0.5" r="0.55">
      <stop offset="0" stop-color="#0A0B2E"/>
      <stop offset="1" stop-color="#6D24B2"/>
    </radialGradient>
    <radialGradient id="spark-dialog-portrait-frame" cx="0.32" cy="0.32" r="0.6">
      <stop offset="0" stop-color="#FFFFFF" stop-opacity="0.9"/>
      <stop offset="1" stop-color="#FFFFFF" stop-opacity="0"/>
    </radialGradient>
  </defs>

    <circle cx="48.00" cy="48.00" r="46.00" fill="#05060F"/>
    <circle cx="48.00" cy="48.00" r="42.00" fill="url(#ring-dialog-portrait-frame)" stroke="#FEDA4A" stroke-width="5"/>
    <circle cx="48.00" cy="48.00" r="23.10" fill="#1C1F3A" stroke="#05060F" stroke-width="3"/>
    <circle cx="48.00" cy="48.00" r="15.02" fill="url(#spark-dialog-portrait-frame)"/>
    <rect x="24.00" y="24.00" width="48.00" height="48.00" rx="9.60" fill="#FEDA4A" stroke="#F0B400" stroke-width="4.80"/><rect x="32.00" y="32.00" width="32.00" height="32.00" rx="6.40" fill="#FFEF9A"/><rect x="33.60" y="40.00" width="8.00" height="8.00" fill="#E52B20" fill-opacity="0.8"/><rect x="41.60" y="40.00" width="8.00" height="8.00" fill="#E52B20" fill-opacity="0.8"/><rect x="49.60" y="40.00" width="8.00" height="8.00" fill="#E52B20" fill-opacity="0.8"/><rect x="33.60" y="48.00" width="8.00" height="8.00" fill="#E52B20" fill-opacity="0.8"/><rect x="41.60" y="48.00" width="8.00" height="8.00" fill="#E52B20" fill-opacity="0.8"/><rect x="49.60" y="48.00" width="8.00" height="8.00" fill="#E52B20" fill-opacity="0.8"/><rect x="41.60" y="56.00" width="8.00" height="8.00" fill="#E52B20" fill-opacity="0.8"/><rect x="41.60" y="64.00" width="8.00" height="8.00" fill="#E52B20" fill-opacity="0.8"/>
    <path d="M69.97,40.86L57.59,51.11 61.58,66.69 48.00,58.08 34.42,66.69 38.41,51.11 26.03,40.86 42.08,39.85 48.00,24.90 53.92,39.85Z" fill="#FEDA4A" stroke="#F3A400" stroke-width="2"/>
  
</svg>
