<svg width="96" height="96" viewBox="0 0 96 96" fill="none" xmlns="http://www.w3.org/2000/svg">
  <defs>
    <radialGradient id="ring-loot-drop-icon" cx="0.5" cy="0.5" r="0.55">
      <stop offset="0" stop-color="#FF7F3F"/>
      <stop offset="1" stop-color="#FEDA4A"/>
    </radialGradient>
    <radialGradient id="spark-loot-drop-icon" cx="0.32" cy="0.32" r="0.6">
      <stop offset="0" stop-color="#FFFFFF" stop-opacity="0.9"/>
      <stop offset="1" stop-color="#FFFFFF" stop-opacity="0"/>
    </radialGradient>
  </defs>

    <circle cx="48.00" cy="48.00" r="46.00" fill="#05060F"/>
    <circle cx="48.00" cy="48.00" r="42.00" fill="url(#ring-loot-drop-icon)" stroke="#E52B20" stroke-width="5"/>
    <circle cx="48.00" cy="48.00" r="23.10" fill="#0A0B2E" stroke="#05060F" stroke-width="3"/>
    <circle cx="48.00" cy="48.00" r="15.02" fill="url(#spark-loot-drop-icon)"/>
    <path d="M84.52,36.13L64.43,53.34 70.57,79.07 48.00,65.28 25.43,79.07 31.57,53.34 11.48,36.13 37.84,34.02 48.00,9.60 58.16,34.02Z" fill="#FEDA4A" stroke="#F3A400" stroke-width="3"/>
    <path d="M69.97,40.86L57.59,51.11 61.58,66.69 48.00,58.08 34.42,66.69 38.41,51.11 26.03,40.86 42.08,39.85 48.00,24.90 53.92,39.85Z" fill="#FEDA4A" stroke="#F3A400" stroke-width="2"/>
  
</svg>
