<svg width="640" height="480" viewBox="0 0 640 480" fill="none" xmlns="http://www.w3.org/2000/svg">
  <defs>
    <linearGradient id="grad-modal-body-fill" x1="0" y1="0" x2="0" y2="1" gradientUnits="objectBoundingBox">
      <stop offset="0" stop-color="#0A0B2E"/>
      <stop offset="1" stop-color="#1C1F3A"/>
    </linearGradient>
    <linearGradient id="shine-modal-body-fill" x1="0" y1="0" x2="0" y2="1" gradientUnits="objectBoundingBox">
      <stop offset="0" stop-color="#FFFFFF" stop-opacity="0.65"/>
      <stop offset="0.5" stop-color="#FFFFFF" stop-opacity="0.15"/>
      <stop offset="1" stop-color="#FFFFFF" stop-opacity="0"/>
    </linearGradient>
    <pattern id="grid-modal-body-fill" width="8" height="8" patternUnits="userSpaceOnUse">
      <rect width="8" height="8" fill="#FFFFFF" fill-opacity="0.05"/>
      <rect width="4" height="4" fill="#000000" fill-opacity="0.12"/>
      <rect x="4" y="4" width="4" height="4" fill="#000000" fill-opacity="0.08"/>
    </pattern>
    <radialGradient id="spark-modal-body-fill" cx="0.5" cy="0.5" r="0.6">
      <stop offset="0" stop-color="#FFFFFF" stop-opacity="0.9"/>
      <stop offset="1" stop-color="#FFFFFF" stop-opacity="0"/>
    </radialGradient>
  </defs>

    <rect x="4" y="4" width="632.00" height="472.00" rx="57.60" fill="url(#grad-modal-body-fill)" stroke="#38A7FF" stroke-width="8"/>
    <rect x="16" y="16" width="608.00" height="448.00" rx="47.60" fill="url(#grid-modal-body-fill)" fill-opacity="0.35" stroke="#05060F" stroke-opacity="0.3" stroke-width="2"/>
    <rect x="16" y="16" width="608.00" height="448.00" rx="47.60" fill="url(#shine-modal-body-fill)"/>
    <rect x="16" y="16" width="608.00" height="57.60" rx="28.56" fill="#B085FF" fill-opacity="0.65"/>
    <rect x="16" y="406.40" width="608.00" height="57.60" rx="28.56" fill="#0A0B2E" fill-opacity="0.85"/>
    <g transform="translate(16 16)" opacity="0.9"><path d="M35.84 35.84H572.16" stroke="#00F6FF" stroke-width="2" stroke-linecap="round" stroke-dasharray="8 6"/><path d="M35.84 224.00H586.50" stroke="#00F6FF" stroke-width="2" stroke-linecap="round" stroke-dasharray="6 6"/><circle cx="39.42" cy="224.00" r="4" fill="#FEDA4A" stroke="#00F6FF" stroke-width="2"/><circle cx="586.50" cy="224.00" r="4" fill="#00F6FF" stroke="#00F6FF" stroke-width="2"/><path d="M304.00 412.16V28.67" stroke="#00F6FF" stroke-width="2" stroke-linecap="round" stroke-dasharray="6 4"/><circle cx="304.00" cy="28.67" r="3" fill="#FF7F3F" stroke="#00F6FF" stroke-width="1.5"/><rect x="145.28" y="28.67" width="6.72" height="390.66" fill="#05060F" stroke="#00F6FF" stroke-width="1.5" rx="3.36"/><circle cx="145.28" cy="112.00" r="2.4" fill="#00F6FF"/><circle cx="145.28" cy="336.00" r="2.4" fill="#FF7F3F"/><rect x="254.72" y="28.67" width="6.72" height="390.66" fill="#05060F" stroke="#00F6FF" stroke-width="1.5" rx="3.36"/><circle cx="254.72" cy="112.00" r="2.4" fill="#00F6FF"/><circle cx="254.72" cy="336.00" r="2.4" fill="#FF7F3F"/><path d="M35.84 412.16L134.40 426.50" stroke="#00F6FF" stroke-width="1.8" stroke-linecap="round" stroke-dasharray="4 4"/><path d="M572.16 35.84L473.60 21.50" stroke="#00F6FF" stroke-width="1.8" stroke-linecap="round" stroke-dasharray="4 4"/><rect x="39.42" y="98.56" width="53.76" height="53.76" rx="6" fill="#05060F" stroke="#00F6FF" stroke-width="2"/><rect x="49.10" y="108.24" width="34.41" height="34.41" rx="4" fill="#00F6FF" fill-opacity="0.35" stroke="#00F6FF" stroke-opacity="0.6" stroke-width="1.4"/><path d="M66.30 152.32V162.00" stroke="#00F6FF" stroke-width="1.5" stroke-linecap="round" stroke-dasharray="3 3"/><path d="M93.18 125.44H102.86" stroke="#00F6FF" stroke-width="1.5" stroke-linecap="round" stroke-dasharray="3 3"/><path d="M78.57,121.45L71.42,127.10 73.89,135.88 66.30,130.82 58.72,135.88 61.19,127.10 54.03,121.45 63.14,121.09 66.30,112.54 69.46,121.09Z" fill="#FEDA4A" fill-opacity="0.65" stroke="#F3A400" stroke-width="1.5"/><rect x="514.82" y="277.76" width="53.76" height="53.76" rx="6" fill="#05060F" stroke="#00F6FF" stroke-width="2"/><rect x="524.49" y="287.44" width="34.41" height="34.41" rx="4" fill="#FF7F3F" fill-opacity="0.35" stroke="#FF7F3F" stroke-opacity="0.6" stroke-width="1.4"/><path d="M541.70 331.52V341.20" stroke="#00F6FF" stroke-width="1.5" stroke-linecap="round" stroke-dasharray="3 3"/><path d="M568.58 304.64H578.25" stroke="#00F6FF" stroke-width="1.5" stroke-linecap="round" stroke-dasharray="3 3"/><path d="M553.97,300.65L546.81,306.30 549.28,315.08 541.70,310.02 534.11,315.08 536.58,306.30 529.43,300.65 538.54,300.29 541.70,291.74 544.86,300.29Z" fill="#FEDA4A" fill-opacity="0.65" stroke="#F3A400" stroke-width="1.5"/></g>
    
    <path d="M113.32,74.53L92.78,91.59 99.37,117.47 76.80,103.20 54.23,117.47 60.82,91.59 40.28,74.53 66.93,72.81 76.80,48.00 86.67,72.81Z" fill="#FEDA4A" stroke="#F3A400" stroke-width="3"/>
    <path d="M596.07,400.59L572.84,404.30 566.71,427.02 556.00,406.07 532.50,407.27 549.11,390.61 540.72,368.63 561.69,379.28 580.00,364.50 576.36,387.74Z" fill="#FF7F3F" stroke="#F36228" stroke-width="3"/>
  
    <rect x="460.80" y="57.60" width="86.40" height="86.40" rx="17.28" fill="#FEDA4A" stroke="#F0B400" stroke-width="8.64"/><rect x="475.20" y="72.00" width="57.60" height="57.60" rx="11.52" fill="#FFEF9A"/><rect x="478.08" y="86.40" width="14.40" height="14.40" fill="#E52B20" fill-opacity="0.8"/><rect x="492.48" y="86.40" width="14.40" height="14.40" fill="#E52B20" fill-opacity="0.8"/><rect x="506.88" y="86.40" width="14.40" height="14.40" fill="#E52B20" fill-opacity="0.8"/><rect x="478.08" y="100.80" width="14.40" height="14.40" fill="#E52B20" fill-opacity="0.8"/><rect x="492.48" y="100.80" width="14.40" height="14.40" fill="#E52B20" fill-opacity="0.8"/><rect x="506.88" y="100.80" width="14.40" height="14.40" fill="#E52B20" fill-opacity="0.8"/><rect x="492.48" y="115.20" width="14.40" height="14.40" fill="#E52B20" fill-opacity="0.8"/><rect x="492.48" y="129.60" width="14.40" height="14.40" fill="#E52B20" fill-opacity="0.8"/>
  
</svg>
