<svg width="640" height="120" viewBox="0 0 640 120" fill="none" xmlns="http://www.w3.org/2000/svg">
  <defs>
    <linearGradient id="grad-shop-header-strip" x1="0" y1="0" x2="0" y2="1" gradientUnits="objectBoundingBox">
      <stop offset="0" stop-color="#E52B20"/>
      <stop offset="1" stop-color="#FF7F3F"/>
    </linearGradient>
    <linearGradient id="shine-shop-header-strip" x1="0" y1="0" x2="0" y2="1" gradientUnits="objectBoundingBox">
      <stop offset="0" stop-color="#FFFFFF" stop-opacity="0.6"/>
      <stop offset="0.5" stop-color="#FFFFFF" stop-opacity="0.18"/>
      <stop offset="1" stop-color="#FFFFFF" stop-opacity="0"/>
    </linearGradient>
    <pattern id="grid-shop-header-strip" width="8" height="8" patternUnits="userSpaceOnUse">
      <rect width="8" height="8" fill="#FFFFFF" fill-opacity="0.05"/>
      <rect width="4" height="4" fill="#000000" fill-opacity="0.12"/>
      <rect x="4" y="4" width="4" height="4" fill="#000000" fill-opacity="0.08"/>
    </pattern>
    <radialGradient id="spark-shop-header-strip" cx="0.5" cy="0.5" r="0.6">
      <stop offset="0" stop-color="#FFFFFF" stop-opacity="0.9"/>
      <stop offset="1" stop-color="#FFFFFF" stop-opacity="0"/>
    </radialGradient>
  </defs>

    <rect x="2" y="2" width="636.00" height="116.00" rx="48" fill="url(#grad-shop-header-strip)" stroke="#FEDA4A" stroke-width="4"/>
    <rect x="8" y="8" width="624.00" height="104.00" rx="42" fill="url(#grid-shop-header-strip)" fill-opacity="0.25"/>
    <path d="M92.53,50.73L75.41,63.71 81.63,84.27 64.00,72.00 46.37,84.27 52.59,63.71 35.47,50.73 56.95,50.29 64.00,30.00 71.05,50.29Z" fill="#FEDA4A" stroke="#F3A400" stroke-width="2"/>
    <rect x="480.00" y="24.00" width="60.00" height="60.00" rx="12.00" fill="#FEDA4A" stroke="#F0B400" stroke-width="6.00"/><rect x="490.00" y="34.00" width="40.00" height="40.00" rx="8.00" fill="#FFEF9A"/><rect x="492.00" y="44.00" width="10.00" height="10.00" fill="#E52B20" fill-opacity="0.8"/><rect x="502.00" y="44.00" width="10.00" height="10.00" fill="#E52B20" fill-opacity="0.8"/><rect x="512.00" y="44.00" width="10.00" height="10.00" fill="#E52B20" fill-opacity="0.8"/><rect x="492.00" y="54.00" width="10.00" height="10.00" fill="#E52B20" fill-opacity="0.8"/><rect x="502.00" y="54.00" width="10.00" height="10.00" fill="#E52B20" fill-opacity="0.8"/><rect x="512.00" y="54.00" width="10.00" height="10.00" fill="#E52B20" fill-opacity="0.8"/><rect x="502.00" y="64.00" width="10.00" height="10.00" fill="#E52B20" fill-opacity="0.8"/><rect x="502.00" y="74.00" width="10.00" height="10.00" fill="#E52B20" fill-opacity="0.8"/>
  
</svg>
