<svg width="96" height="96" viewBox="0 0 96 96" fill="none" xmlns="http://www.w3.org/2000/svg">
  <defs>
    <linearGradient id="grad-stack-multi-drop-icon" x1="0" y1="0" x2="0" y2="1" gradientUnits="objectBoundingBox">
      <stop offset="0" stop-color="#FF7F3F"/>
      <stop offset="1" stop-color="#FEDA4A"/>
    </linearGradient>
    <linearGradient id="shine-stack-multi-drop-icon" x1="0" y1="0" x2="0" y2="1" gradientUnits="objectBoundingBox">
      <stop offset="0" stop-color="#FFFFFF" stop-opacity="0.6"/>
      <stop offset="0.5" stop-color="#FFFFFF" stop-opacity="0.18"/>
      <stop offset="1" stop-color="#FFFFFF" stop-opacity="0"/>
    </linearGradient>
    <pattern id="grid-stack-multi-drop-icon" width="8" height="8" patternUnits="userSpaceOnUse">
      <rect width="8" height="8" fill="#FFFFFF" fill-opacity="0.05"/>
      <rect width="4" height="4" fill="#000000" fill-opacity="0.12"/>
      <rect x="4" y="4" width="4" height="4" fill="#000000" fill-opacity="0.08"/>
    </pattern>
    <radialGradient id="spark-stack-multi-drop-icon" cx="0.5" cy="0.5" r="0.6">
      <stop offset="0" stop-color="#FFFFFF" stop-opacity="0.9"/>
      <stop offset="1" stop-color="#FFFFFF" stop-opacity="0"/>
    </radialGradient>
  </defs>

    <rect x="2" y="2" width="92.00" height="92.00" rx="19.200000000000003" fill="url(#grad-stack-multi-drop-icon)" stroke="#E52B20" stroke-width="4"/>
    <rect x="10" y="10" width="76.00" height="76.00" rx="15.36" fill="url(#grid-stack-multi-drop-icon)" fill-opacity="0.28"/>
    <g>
    <circle cx="33.60" cy="52.80" r="19.20" fill="#FEDA4A" stroke="#F3A400" stroke-width="3"/>
    <path d="M46.38,48.65L39.08,54.58 41.50,63.67 33.60,58.56 25.70,63.67 28.12,54.58 20.82,48.65 30.21,48.14 33.60,39.36 36.99,48.14Z" fill="#FFFFFF" fill-opacity="0.85"/>
  </g>
    <g>
    <circle cx="57.60" cy="43.20" r="17.28" fill="#FEDA4A" stroke="#F3A400" stroke-width="3"/>
    <path d="M69.10,39.46L62.53,44.80 64.71,52.99 57.60,48.38 50.49,52.99 52.67,44.80 46.10,39.46 54.55,39.01 57.60,31.10 60.65,39.01Z" fill="#FFFFFF" fill-opacity="0.85"/>
  </g>
    <g>
    <circle cx="72.00" cy="62.40" r="15.36" fill="#FEDA4A" stroke="#F3A400" stroke-width="3"/>
    <path d="M82.23,59.08L76.38,63.82 78.32,71.10 72.00,67.01 65.68,71.10 67.62,63.82 61.77,59.08 69.29,58.67 72.00,51.65 74.71,58.67Z" fill="#FFFFFF" fill-opacity="0.85"/>
  </g>
  
</svg>
