<svg width="256" height="32" viewBox="0 0 256 32" fill="none" xmlns="http://www.w3.org/2000/svg">
  <defs>
    <linearGradient id="status-status-icon-glyphs" x1="0" y1="0" x2="1" y2="0">
      <stop offset="0" stop-color="#38A7FF"/>
      <stop offset="1" stop-color="#FF7F3F"/>
    </linearGradient>
  </defs>

    <rect width="256" height="32" fill="#05060F"/>
    <rect x="2" y="2" width="252.00" height="28.00" rx="12.8" fill="url(#status-status-icon-glyphs)"/>
    <path d="M30.40,16.00L20.66,19.39 20.45,29.70 14.22,21.48 4.35,24.46 10.24,16.00 4.35,7.54 14.22,10.52 20.45,2.30 20.66,12.61Z" fill="#FEDA4A" stroke="#F3A400" stroke-width="1.5"/>
<path d="M61.70,20.45L51.39,20.66 48.00,30.40 44.61,20.66 34.30,20.45 42.52,14.22 39.54,4.35 48.00,10.24 56.46,4.35 53.48,14.22Z" fill="#FEDA4A" stroke="#F3A400" stroke-width="1.5"/>
<path d="M91.65,24.46L81.78,21.48 75.55,29.70 75.34,19.39 65.60,16.00 75.34,12.61 75.55,2.30 81.78,10.52 91.65,7.54 85.76,16.00Z" fill="#FEDA4A" stroke="#F3A400" stroke-width="1.5"/>
<path d="M120.46,27.65L112.00,21.76 103.54,27.65 106.52,17.78 98.30,11.55 108.61,11.34 112.00,1.60 115.39,11.34 125.70,11.55 117.48,17.78Z" fill="#FEDA4A" stroke="#F3A400" stroke-width="1.5"/>
<path d="M148.45,29.70L142.22,21.48 132.35,24.46 138.24,16.00 132.35,7.54 142.22,10.52 148.45,2.30 148.66,12.61 158.40,16.00 148.66,19.39Z" fill="#FEDA4A" stroke="#F3A400" stroke-width="1.5"/>
<path d="M176.00,30.40L172.61,20.66 162.30,20.45 170.52,14.22 167.54,4.35 176.00,10.24 184.46,4.35 181.48,14.22 189.70,20.45 179.39,20.66Z" fill="#FEDA4A" stroke="#F3A400" stroke-width="1.5"/>
<path d="M203.55,29.70L203.34,19.39 193.60,16.00 203.34,12.61 203.55,2.30 209.78,10.52 219.65,7.54 213.76,16.00 219.65,24.46 209.78,21.48Z" fill="#FEDA4A" stroke="#F3A400" stroke-width="1.5"/>
<path d="M231.54,27.65L234.52,17.78 226.30,11.55 236.61,11.34 240.00,1.60 243.39,11.34 253.70,11.55 245.48,17.78 248.46,27.65 240.00,21.76Z" fill="#FEDA4A" stroke="#F3A400" stroke-width="1.5"/>
  
</svg>
