<svg width="512" height="512" viewBox="0 0 512 512" fill="none" xmlns="http://www.w3.org/2000/svg">
  <defs>
    <linearGradient id="atlas-tile-atlas" x1="0" y1="0" x2="0" y2="1">
      <stop offset="0" stop-color="#1F2F98"/>
      <stop offset="1" stop-color="#0A0B2E"/>
    </linearGradient>
  </defs>

    <rect width="512" height="512" fill="url(#atlas-tile-atlas)"/>
    <line x1="0.00" y1="0" x2="0.00" y2="512" stroke="#FFFFFF" stroke-opacity="0.12"/><line x1="64.00" y1="0" x2="64.00" y2="512" stroke="#FFFFFF" stroke-opacity="0.12"/><line x1="128.00" y1="0" x2="128.00" y2="512" stroke="#FFFFFF" stroke-opacity="0.12"/><line x1="192.00" y1="0" x2="192.00" y2="512" stroke="#FFFFFF" stroke-opacity="0.12"/><line x1="256.00" y1="0" x2="256.00" y2="512" stroke="#FFFFFF" stroke-opacity="0.12"/><line x1="320.00" y1="0" x2="320.00" y2="512" stroke="#FFFFFF" stroke-opacity="0.12"/><line x1="384.00" y1="0" x2="384.00" y2="512" stroke="#FFFFFF" stroke-opacity="0.12"/><line x1="448.00" y1="0" x2="448.00" y2="512" stroke="#FFFFFF" stroke-opacity="0.12"/><line x1="512.00" y1="0" x2="512.00" y2="512" stroke="#FFFFFF" stroke-opacity="0.12"/><line x1="0" y1="0.00" x2="512" y2="0.00" stroke="#FFFFFF" stroke-opacity="0.12"/><line x1="0" y1="64.00" x2="512" y2="64.00" stroke="#FFFFFF" stroke-opacity="0.12"/><line x1="0" y1="128.00" x2="512" y2="128.00" stroke="#FFFFFF" stroke-opacity="0.12"/><line x1="0" y1="192.00" x2="512" y2="192.00" stroke="#FFFFFF" stroke-opacity="0.12"/><line x1="0" y1="256.00" x2="512" y2="256.00" stroke="#FFFFFF" stroke-opacity="0.12"/><line x1="0" y1="320.00" x2="512" y2="320.00" stroke="#FFFFFF" stroke-opacity="0.12"/><line x1="0" y1="384.00" x2="512" y2="384.00" stroke="#FFFFFF" stroke-opacity="0.12"/><line x1="0" y1="448.00" x2="512" y2="448.00" stroke="#FFFFFF" stroke-opacity="0.12"/><line x1="0" y1="512.00" x2="512" y2="512.00" stroke="#FFFFFF" stroke-opacity="0.12"/>
    <g><path d="M46.61,27.25L38.09,33.98 41.03,44.43 32.00,38.40 22.97,44.43 25.91,33.98 17.39,27.25 28.24,26.82 32.00,16.64 35.76,26.82Z" fill="#FEDA4A" fill-opacity="0.75" stroke="#FFFFFF" stroke-width="1.2"/></g>
<g><rect x="75.52" y="11.52" width="28.80" height="28.80" rx="5.76" fill="#FEDA4A" stroke="#F0B400" stroke-width="2.88"/><rect x="80.32" y="16.32" width="19.20" height="19.20" rx="3.84" fill="#FFEF9A"/><rect x="81.28" y="21.12" width="4.80" height="4.80" fill="#E52B20" fill-opacity="0.8"/><rect x="86.08" y="21.12" width="4.80" height="4.80" fill="#E52B20" fill-opacity="0.8"/><rect x="90.88" y="21.12" width="4.80" height="4.80" fill="#E52B20" fill-opacity="0.8"/><rect x="81.28" y="25.92" width="4.80" height="4.80" fill="#E52B20" fill-opacity="0.8"/><rect x="86.08" y="25.92" width="4.80" height="4.80" fill="#E52B20" fill-opacity="0.8"/><rect x="90.88" y="25.92" width="4.80" height="4.80" fill="#E52B20" fill-opacity="0.8"/><rect x="86.08" y="30.72" width="4.80" height="4.80" fill="#E52B20" fill-opacity="0.8"/><rect x="86.08" y="35.52" width="4.80" height="4.80" fill="#E52B20" fill-opacity="0.8"/></g>
<g><path d="M174.61,27.25L166.09,33.98 169.03,44.43 160.00,38.40 150.97,44.43 153.91,33.98 145.39,27.25 156.24,26.82 160.00,16.64 163.76,26.82Z" fill="#38A7FF" fill-opacity="0.75" stroke="#FFFFFF" stroke-width="1.2"/></g>
<g><rect x="203.52" y="11.52" width="28.80" height="28.80" rx="5.76" fill="#FEDA4A" stroke="#F0B400" stroke-width="2.88"/><rect x="208.32" y="16.32" width="19.20" height="19.20" rx="3.84" fill="#FFEF9A"/><rect x="209.28" y="21.12" width="4.80" height="4.80" fill="#E52B20" fill-opacity="0.8"/><rect x="214.08" y="21.12" width="4.80" height="4.80" fill="#E52B20" fill-opacity="0.8"/><rect x="218.88" y="21.12" width="4.80" height="4.80" fill="#E52B20" fill-opacity="0.8"/><rect x="209.28" y="25.92" width="4.80" height="4.80" fill="#E52B20" fill-opacity="0.8"/><rect x="214.08" y="25.92" width="4.80" height="4.80" fill="#E52B20" fill-opacity="0.8"/><rect x="218.88" y="25.92" width="4.80" height="4.80" fill="#E52B20" fill-opacity="0.8"/><rect x="214.08" y="30.72" width="4.80" height="4.80" fill="#E52B20" fill-opacity="0.8"/><rect x="214.08" y="35.52" width="4.80" height="4.80" fill="#E52B20" fill-opacity="0.8"/></g>
<g><path d="M302.61,27.25L294.09,33.98 297.03,44.43 288.00,38.40 278.97,44.43 281.91,33.98 273.39,27.25 284.24,26.82 288.00,16.64 291.76,26.82Z" fill="#E52B20" fill-opacity="0.75" stroke="#FFFFFF" stroke-width="1.2"/></g>
<g><rect x="331.52" y="11.52" width="28.80" height="28.80" rx="5.76" fill="#FEDA4A" stroke="#F0B400" stroke-width="2.88"/><rect x="336.32" y="16.32" width="19.20" height="19.20" rx="3.84" fill="#FFEF9A"/><rect x="337.28" y="21.12" width="4.80" height="4.80" fill="#E52B20" fill-opacity="0.8"/><rect x="342.08" y="21.12" width="4.80" height="4.80" fill="#E52B20" fill-opacity="0.8"/><rect x="346.88" y="21.12" width="4.80" height="4.80" fill="#E52B20" fill-opacity="0.8"/><rect x="337.28" y="25.92" width="4.80" height="4.80" fill="#E52B20" fill-opacity="0.8"/><rect x="342.08" y="25.92" width="4.80" height="4.80" fill="#E52B20" fill-opacity="0.8"/><rect x="346.88" y="25.92" width="4.80" height="4.80" fill="#E52B20" fill-opacity="0.8"/><rect x="342.08" y="30.72" width="4.80" height="4.80" fill="#E52B20" fill-opacity="0.8"/><rect x="342.08" y="35.52" width="4.80" height="4.80" fill="#E52B20" fill-opacity="0.8"/></g>
<g><path d="M430.61,27.25L422.09,33.98 425.03,44.43 416.00,38.40 406.97,44.43 409.91,33.98 401.39,27.25 412.24,26.82 416.00,16.64 419.76,26.82Z" fill="#B085FF" fill-opacity="0.75" stroke="#FFFFFF" stroke-width="1.2"/></g>
<g><rect x="459.52" y="11.52" width="28.80" height="28.80" rx="5.76" fill="#FEDA4A" stroke="#F0B400" stroke-width="2.88"/><rect x="464.32" y="16.32" width="19.20" height="19.20" rx="3.84" fill="#FFEF9A"/><rect x="465.28" y="21.12" width="4.80" height="4.80" fill="#E52B20" fill-opacity="0.8"/><rect x="470.08" y="21.12" width="4.80" height="4.80" fill="#E52B20" fill-opacity="0.8"/><rect x="474.88" y="21.12" width="4.80" height="4.80" fill="#E52B20" fill-opacity="0.8"/><rect x="465.28" y="25.92" width="4.80" height="4.80" fill="#E52B20" fill-opacity="0.8"/><rect x="470.08" y="25.92" width="4.80" height="4.80" fill="#E52B20" fill-opacity="0.8"/><rect x="474.88" y="25.92" width="4.80" height="4.80" fill="#E52B20" fill-opacity="0.8"/><rect x="470.08" y="30.72" width="4.80" height="4.80" fill="#E52B20" fill-opacity="0.8"/><rect x="470.08" y="35.52" width="4.80" height="4.80" fill="#E52B20" fill-opacity="0.8"/></g>
<g><rect x="11.52" y="75.52" width="28.80" height="28.80" rx="5.76" fill="#FEDA4A" stroke="#F0B400" stroke-width="2.88"/><rect x="16.32" y="80.32" width="19.20" height="19.20" rx="3.84" fill="#FFEF9A"/><rect x="17.28" y="85.12" width="4.80" height="4.80" fill="#E52B20" fill-opacity="0.8"/><rect x="22.08" y="85.12" width="4.80" height="4.80" fill="#E52B20" fill-opacity="0.8"/><rect x="26.88" y="85.12" width="4.80" height="4.80" fill="#E52B20" fill-opacity="0.8"/><rect x="17.28" y="89.92" width="4.80" height="4.80" fill="#E52B20" fill-opacity="0.8"/><rect x="22.08" y="89.92" width="4.80" height="4.80" fill="#E52B20" fill-opacity="0.8"/><rect x="26.88" y="89.92" width="4.80" height="4.80" fill="#E52B20" fill-opacity="0.8"/><rect x="22.08" y="94.72" width="4.80" height="4.80" fill="#E52B20" fill-opacity="0.8"/><rect x="22.08" y="99.52" width="4.80" height="4.80" fill="#E52B20" fill-opacity="0.8"/></g>
<g><path d="M110.61,91.25L102.09,97.98 105.03,108.43 96.00,102.40 86.97,108.43 89.91,97.98 81.39,91.25 92.24,90.82 96.00,80.64 99.76,90.82Z" fill="#FF7F3F" fill-opacity="0.75" stroke="#FFFFFF" stroke-width="1.2"/></g>
<g><rect x="139.52" y="75.52" width="28.80" height="28.80" rx="5.76" fill="#FEDA4A" stroke="#F0B400" stroke-width="2.88"/><rect x="144.32" y="80.32" width="19.20" height="19.20" rx="3.84" fill="#FFEF9A"/><rect x="145.28" y="85.12" width="4.80" height="4.80" fill="#E52B20" fill-opacity="0.8"/><rect x="150.08" y="85.12" width="4.80" height="4.80" fill="#E52B20" fill-opacity="0.8"/><rect x="154.88" y="85.12" width="4.80" height="4.80" fill="#E52B20" fill-opacity="0.8"/><rect x="145.28" y="89.92" width="4.80" height="4.80" fill="#E52B20" fill-opacity="0.8"/><rect x="150.08" y="89.92" width="4.80" height="4.80" fill="#E52B20" fill-opacity="0.8"/><rect x="154.88" y="89.92" width="4.80" height="4.80" fill="#E52B20" fill-opacity="0.8"/><rect x="150.08" y="94.72" width="4.80" height="4.80" fill="#E52B20" fill-opacity="0.8"/><rect x="150.08" y="99.52" width="4.80" height="4.80" fill="#E52B20" fill-opacity="0.8"/></g>
<g><path d="M238.61,91.25L230.09,97.98 233.03,108.43 224.00,102.40 214.97,108.43 217.91,97.98 209.39,91.25 220.24,90.82 224.00,80.64 227.76,90.82Z" fill="#00F6FF" fill-opacity="0.75" stroke="#FFFFFF" stroke-width="1.2"/></g>
<g><rect x="267.52" y="75.52" width="28.80" height="28.80" rx="5.76" fill="#FEDA4A" stroke="#F0B400" stroke-width="2.88"/><rect x="272.32" y="80.32" width="19.20" height="19.20" rx="3.84" fill="#FFEF9A"/><rect x="273.28" y="85.12" width="4.80" height="4.80" fill="#E52B20" fill-opacity="0.8"/><rect x="278.08" y="85.12" width="4.80" height="4.80" fill="#E52B20" fill-opacity="0.8"/><rect x="282.88" y="85.12" width="4.80" height="4.80" fill="#E52B20" fill-opacity="0.8"/><rect x="273.28" y="89.92" width="4.80" height="4.80" fill="#E52B20" fill-opacity="0.8"/><rect x="278.08" y="89.92" width="4.80" height="4.80" fill="#E52B20" fill-opacity="0.8"/><rect x="282.88" y="89.92" width="4.80" height="4.80" fill="#E52B20" fill-opacity="0.8"/><rect x="278.08" y="94.72" width="4.80" height="4.80" fill="#E52B20" fill-opacity="0.8"/><rect x="278.08" y="99.52" width="4.80" height="4.80" fill="#E52B20" fill-opacity="0.8"/></g>
<g><path d="M366.61,91.25L358.09,97.98 361.03,108.43 352.00,102.40 342.97,108.43 345.91,97.98 337.39,91.25 348.24,90.82 352.00,80.64 355.76,90.82Z" fill="#38B653" fill-opacity="0.75" stroke="#FFFFFF" stroke-width="1.2"/></g>
<g><rect x="395.52" y="75.52" width="28.80" height="28.80" rx="5.76" fill="#FEDA4A" stroke="#F0B400" stroke-width="2.88"/><rect x="400.32" y="80.32" width="19.20" height="19.20" rx="3.84" fill="#FFEF9A"/><rect x="401.28" y="85.12" width="4.80" height="4.80" fill="#E52B20" fill-opacity="0.8"/><rect x="406.08" y="85.12" width="4.80" height="4.80" fill="#E52B20" fill-opacity="0.8"/><rect x="410.88" y="85.12" width="4.80" height="4.80" fill="#E52B20" fill-opacity="0.8"/><rect x="401.28" y="89.92" width="4.80" height="4.80" fill="#E52B20" fill-opacity="0.8"/><rect x="406.08" y="89.92" width="4.80" height="4.80" fill="#E52B20" fill-opacity="0.8"/><rect x="410.88" y="89.92" width="4.80" height="4.80" fill="#E52B20" fill-opacity="0.8"/><rect x="406.08" y="94.72" width="4.80" height="4.80" fill="#E52B20" fill-opacity="0.8"/><rect x="406.08" y="99.52" width="4.80" height="4.80" fill="#E52B20" fill-opacity="0.8"/></g>
<g><path d="M494.61,91.25L486.09,97.98 489.03,108.43 480.00,102.40 470.97,108.43 473.91,97.98 465.39,91.25 476.24,90.82 480.00,80.64 483.76,90.82Z" fill="#6D24B2" fill-opacity="0.75" stroke="#FFFFFF" stroke-width="1.2"/></g>
<g><path d="M46.61,155.25L38.09,161.98 41.03,172.43 32.00,166.40 22.97,172.43 25.91,161.98 17.39,155.25 28.24,154.82 32.00,144.64 35.76,154.82Z" fill="#FEDA4A" fill-opacity="0.75" stroke="#FFFFFF" stroke-width="1.2"/></g>
<g><rect x="75.52" y="139.52" width="28.80" height="28.80" rx="5.76" fill="#FEDA4A" stroke="#F0B400" stroke-width="2.88"/><rect x="80.32" y="144.32" width="19.20" height="19.20" rx="3.84" fill="#FFEF9A"/><rect x="81.28" y="149.12" width="4.80" height="4.80" fill="#E52B20" fill-opacity="0.8"/><rect x="86.08" y="149.12" width="4.80" height="4.80" fill="#E52B20" fill-opacity="0.8"/><rect x="90.88" y="149.12" width="4.80" height="4.80" fill="#E52B20" fill-opacity="0.8"/><rect x="81.28" y="153.92" width="4.80" height="4.80" fill="#E52B20" fill-opacity="0.8"/><rect x="86.08" y="153.92" width="4.80" height="4.80" fill="#E52B20" fill-opacity="0.8"/><rect x="90.88" y="153.92" width="4.80" height="4.80" fill="#E52B20" fill-opacity="0.8"/><rect x="86.08" y="158.72" width="4.80" height="4.80" fill="#E52B20" fill-opacity="0.8"/><rect x="86.08" y="163.52" width="4.80" height="4.80" fill="#E52B20" fill-opacity="0.8"/></g>
<g><path d="M174.61,155.25L166.09,161.98 169.03,172.43 160.00,166.40 150.97,172.43 153.91,161.98 145.39,155.25 156.24,154.82 160.00,144.64 163.76,154.82Z" fill="#38A7FF" fill-opacity="0.75" stroke="#FFFFFF" stroke-width="1.2"/></g>
<g><rect x="203.52" y="139.52" width="28.80" height="28.80" rx="5.76" fill="#FEDA4A" stroke="#F0B400" stroke-width="2.88"/><rect x="208.32" y="144.32" width="19.20" height="19.20" rx="3.84" fill="#FFEF9A"/><rect x="209.28" y="149.12" width="4.80" height="4.80" fill="#E52B20" fill-opacity="0.8"/><rect x="214.08" y="149.12" width="4.80" height="4.80" fill="#E52B20" fill-opacity="0.8"/><rect x="218.88" y="149.12" width="4.80" height="4.80" fill="#E52B20" fill-opacity="0.8"/><rect x="209.28" y="153.92" width="4.80" height="4.80" fill="#E52B20" fill-opacity="0.8"/><rect x="214.08" y="153.92" width="4.80" height="4.80" fill="#E52B20" fill-opacity="0.8"/><rect x="218.88" y="153.92" width="4.80" height="4.80" fill="#E52B20" fill-opacity="0.8"/><rect x="214.08" y="158.72" width="4.80" height="4.80" fill="#E52B20" fill-opacity="0.8"/><rect x="214.08" y="163.52" width="4.80" height="4.80" fill="#E52B20" fill-opacity="0.8"/></g>
<g><path d="M302.61,155.25L294.09,161.98 297.03,172.43 288.00,166.40 278.97,172.43 281.91,161.98 273.39,155.25 284.24,154.82 288.00,144.64 291.76,154.82Z" fill="#E52B20" fill-opacity="0.75" stroke="#FFFFFF" stroke-width="1.2"/></g>
<g><rect x="331.52" y="139.52" width="28.80" height="28.80" rx="5.76" fill="#FEDA4A" stroke="#F0B400" stroke-width="2.88"/><rect x="336.32" y="144.32" width="19.20" height="19.20" rx="3.84" fill="#FFEF9A"/><rect x="337.28" y="149.12" width="4.80" height="4.80" fill="#E52B20" fill-opacity="0.8"/><rect x="342.08" y="149.12" width="4.80" height="4.80" fill="#E52B20" fill-opacity="0.8"/><rect x="346.88" y="149.12" width="4.80" height="4.80" fill="#E52B20" fill-opacity="0.8"/><rect x="337.28" y="153.92" width="4.80" height="4.80" fill="#E52B20" fill-opacity="0.8"/><rect x="342.08" y="153.92" width="4.80" height="4.80" fill="#E52B20" fill-opacity="0.8"/><rect x="346.88" y="153.92" width="4.80" height="4.80" fill="#E52B20" fill-opacity="0.8"/><rect x="342.08" y="158.72" width="4.80" height="4.80" fill="#E52B20" fill-opacity="0.8"/><rect x="342.08" y="163.52" width="4.80" height="4.80" fill="#E52B20" fill-opacity="0.8"/></g>
<g><path d="M430.61,155.25L422.09,161.98 425.03,172.43 416.00,166.40 406.97,172.43 409.91,161.98 401.39,155.25 412.24,154.82 416.00,144.64 419.76,154.82Z" fill="#B085FF" fill-opacity="0.75" stroke="#FFFFFF" stroke-width="1.2"/></g>
<g><rect x="459.52" y="139.52" width="28.80" height="28.80" rx="5.76" fill="#FEDA4A" stroke="#F0B400" stroke-width="2.88"/><rect x="464.32" y="144.32" width="19.20" height="19.20" rx="3.84" fill="#FFEF9A"/><rect x="465.28" y="149.12" width="4.80" height="4.80" fill="#E52B20" fill-opacity="0.8"/><rect x="470.08" y="149.12" width="4.80" height="4.80" fill="#E52B20" fill-opacity="0.8"/><rect x="474.88" y="149.12" width="4.80" height="4.80" fill="#E52B20" fill-opacity="0.8"/><rect x="465.28" y="153.92" width="4.80" height="4.80" fill="#E52B20" fill-opacity="0.8"/><rect x="470.08" y="153.92" width="4.80" height="4.80" fill="#E52B20" fill-opacity="0.8"/><rect x="474.88" y="153.92" width="4.80" height="4.80" fill="#E52B20" fill-opacity="0.8"/><rect x="470.08" y="158.72" width="4.80" height="4.80" fill="#E52B20" fill-opacity="0.8"/><rect x="470.08" y="163.52" width="4.80" height="4.80" fill="#E52B20" fill-opacity="0.8"/></g>
<g><rect x="11.52" y="203.52" width="28.80" height="28.80" rx="5.76" fill="#FEDA4A" stroke="#F0B400" stroke-width="2.88"/><rect x="16.32" y="208.32" width="19.20" height="19.20" rx="3.84" fill="#FFEF9A"/><rect x="17.28" y="213.12" width="4.80" height="4.80" fill="#E52B20" fill-opacity="0.8"/><rect x="22.08" y="213.12" width="4.80" height="4.80" fill="#E52B20" fill-opacity="0.8"/><rect x="26.88" y="213.12" width="4.80" height="4.80" fill="#E52B20" fill-opacity="0.8"/><rect x="17.28" y="217.92" width="4.80" height="4.80" fill="#E52B20" fill-opacity="0.8"/><rect x="22.08" y="217.92" width="4.80" height="4.80" fill="#E52B20" fill-opacity="0.8"/><rect x="26.88" y="217.92" width="4.80" height="4.80" fill="#E52B20" fill-opacity="0.8"/><rect x="22.08" y="222.72" width="4.80" height="4.80" fill="#E52B20" fill-opacity="0.8"/><rect x="22.08" y="227.52" width="4.80" height="4.80" fill="#E52B20" fill-opacity="0.8"/></g>
<g><path d="M110.61,219.25L102.09,225.98 105.03,236.43 96.00,230.40 86.97,236.43 89.91,225.98 81.39,219.25 92.24,218.82 96.00,208.64 99.76,218.82Z" fill="#FF7F3F" fill-opacity="0.75" stroke="#FFFFFF" stroke-width="1.2"/></g>
<g><rect x="139.52" y="203.52" width="28.80" height="28.80" rx="5.76" fill="#FEDA4A" stroke="#F0B400" stroke-width="2.88"/><rect x="144.32" y="208.32" width="19.20" height="19.20" rx="3.84" fill="#FFEF9A"/><rect x="145.28" y="213.12" width="4.80" height="4.80" fill="#E52B20" fill-opacity="0.8"/><rect x="150.08" y="213.12" width="4.80" height="4.80" fill="#E52B20" fill-opacity="0.8"/><rect x="154.88" y="213.12" width="4.80" height="4.80" fill="#E52B20" fill-opacity="0.8"/><rect x="145.28" y="217.92" width="4.80" height="4.80" fill="#E52B20" fill-opacity="0.8"/><rect x="150.08" y="217.92" width="4.80" height="4.80" fill="#E52B20" fill-opacity="0.8"/><rect x="154.88" y="217.92" width="4.80" height="4.80" fill="#E52B20" fill-opacity="0.8"/><rect x="150.08" y="222.72" width="4.80" height="4.80" fill="#E52B20" fill-opacity="0.8"/><rect x="150.08" y="227.52" width="4.80" height="4.80" fill="#E52B20" fill-opacity="0.8"/></g>
<g><path d="M238.61,219.25L230.09,225.98 233.03,236.43 224.00,230.40 214.97,236.43 217.91,225.98 209.39,219.25 220.24,218.82 224.00,208.64 227.76,218.82Z" fill="#00F6FF" fill-opacity="0.75" stroke="#FFFFFF" stroke-width="1.2"/></g>
<g><rect x="267.52" y="203.52" width="28.80" height="28.80" rx="5.76" fill="#FEDA4A" stroke="#F0B400" stroke-width="2.88"/><rect x="272.32" y="208.32" width="19.20" height="19.20" rx="3.84" fill="#FFEF9A"/><rect x="273.28" y="213.12" width="4.80" height="4.80" fill="#E52B20" fill-opacity="0.8"/><rect x="278.08" y="213.12" width="4.80" height="4.80" fill="#E52B20" fill-opacity="0.8"/><rect x="282.88" y="213.12" width="4.80" height="4.80" fill="#E52B20" fill-opacity="0.8"/><rect x="273.28" y="217.92" width="4.80" height="4.80" fill="#E52B20" fill-opacity="0.8"/><rect x="278.08" y="217.92" width="4.80" height="4.80" fill="#E52B20" fill-opacity="0.8"/><rect x="282.88" y="217.92" width="4.80" height="4.80" fill="#E52B20" fill-opacity="0.8"/><rect x="278.08" y="222.72" width="4.80" height="4.80" fill="#E52B20" fill-opacity="0.8"/><rect x="278.08" y="227.52" width="4.80" height="4.80" fill="#E52B20" fill-opacity="0.8"/></g>
<g><path d="M366.61,219.25L358.09,225.98 361.03,236.43 352.00,230.40 342.97,236.43 345.91,225.98 337.39,219.25 348.24,218.82 352.00,208.64 355.76,218.82Z" fill="#38B653" fill-opacity="0.75" stroke="#FFFFFF" stroke-width="1.2"/></g>
<g><rect x="395.52" y="203.52" width="28.80" height="28.80" rx="5.76" fill="#FEDA4A" stroke="#F0B400" stroke-width="2.88"/><rect x="400.32" y="208.32" width="19.20" height="19.20" rx="3.84" fill="#FFEF9A"/><rect x="401.28" y="213.12" width="4.80" height="4.80" fill="#E52B20" fill-opacity="0.8"/><rect x="406.08" y="213.12" width="4.80" height="4.80" fill="#E52B20" fill-opacity="0.8"/><rect x="410.88" y="213.12" width="4.80" height="4.80" fill="#E52B20" fill-opacity="0.8"/><rect x="401.28" y="217.92" width="4.80" height="4.80" fill="#E52B20" fill-opacity="0.8"/><rect x="406.08" y="217.92" width="4.80" height="4.80" fill="#E52B20" fill-opacity="0.8"/><rect x="410.88" y="217.92" width="4.80" height="4.80" fill="#E52B20" fill-opacity="0.8"/><rect x="406.08" y="222.72" width="4.80" height="4.80" fill="#E52B20" fill-opacity="0.8"/><rect x="406.08" y="227.52" width="4.80" height="4.80" fill="#E52B20" fill-opacity="0.8"/></g>
<g><path d="M494.61,219.25L486.09,225.98 489.03,236.43 480.00,230.40 470.97,236.43 473.91,225.98 465.39,219.25 476.24,218.82 480.00,208.64 483.76,218.82Z" fill="#6D24B2" fill-opacity="0.75" stroke="#FFFFFF" stroke-width="1.2"/></g>
<g><path d="M46.61,283.25L38.09,289.98 41.03,300.43 32.00,294.40 22.97,300.43 25.91,289.98 17.39,283.25 28.24,282.82 32.00,272.64 35.76,282.82Z" fill="#FEDA4A" fill-opacity="0.75" stroke="#FFFFFF" stroke-width="1.2"/></g>
<g><rect x="75.52" y="267.52" width="28.80" height="28.80" rx="5.76" fill="#FEDA4A" stroke="#F0B400" stroke-width="2.88"/><rect x="80.32" y="272.32" width="19.20" height="19.20" rx="3.84" fill="#FFEF9A"/><rect x="81.28" y="277.12" width="4.80" height="4.80" fill="#E52B20" fill-opacity="0.8"/><rect x="86.08" y="277.12" width="4.80" height="4.80" fill="#E52B20" fill-opacity="0.8"/><rect x="90.88" y="277.12" width="4.80" height="4.80" fill="#E52B20" fill-opacity="0.8"/><rect x="81.28" y="281.92" width="4.80" height="4.80" fill="#E52B20" fill-opacity="0.8"/><rect x="86.08" y="281.92" width="4.80" height="4.80" fill="#E52B20" fill-opacity="0.8"/><rect x="90.88" y="281.92" width="4.80" height="4.80" fill="#E52B20" fill-opacity="0.8"/><rect x="86.08" y="286.72" width="4.80" height="4.80" fill="#E52B20" fill-opacity="0.8"/><rect x="86.08" y="291.52" width="4.80" height="4.80" fill="#E52B20" fill-opacity="0.8"/></g>
<g><path d="M174.61,283.25L166.09,289.98 169.03,300.43 160.00,294.40 150.97,300.43 153.91,289.98 145.39,283.25 156.24,282.82 160.00,272.64 163.76,282.82Z" fill="#38A7FF" fill-opacity="0.75" stroke="#FFFFFF" stroke-width="1.2"/></g>
<g><rect x="203.52" y="267.52" width="28.80" height="28.80" rx="5.76" fill="#FEDA4A" stroke="#F0B400" stroke-width="2.88"/><rect x="208.32" y="272.32" width="19.20" height="19.20" rx="3.84" fill="#FFEF9A"/><rect x="209.28" y="277.12" width="4.80" height="4.80" fill="#E52B20" fill-opacity="0.8"/><rect x="214.08" y="277.12" width="4.80" height="4.80" fill="#E52B20" fill-opacity="0.8"/><rect x="218.88" y="277.12" width="4.80" height="4.80" fill="#E52B20" fill-opacity="0.8"/><rect x="209.28" y="281.92" width="4.80" height="4.80" fill="#E52B20" fill-opacity="0.8"/><rect x="214.08" y="281.92" width="4.80" height="4.80" fill="#E52B20" fill-opacity="0.8"/><rect x="218.88" y="281.92" width="4.80" height="4.80" fill="#E52B20" fill-opacity="0.8"/><rect x="214.08" y="286.72" width="4.80" height="4.80" fill="#E52B20" fill-opacity="0.8"/><rect x="214.08" y="291.52" width="4.80" height="4.80" fill="#E52B20" fill-opacity="0.8"/></g>
<g><path d="M302.61,283.25L294.09,289.98 297.03,300.43 288.00,294.40 278.97,300.43 281.91,289.98 273.39,283.25 284.24,282.82 288.00,272.64 291.76,282.82Z" fill="#E52B20" fill-opacity="0.75" stroke="#FFFFFF" stroke-width="1.2"/></g>
<g><rect x="331.52" y="267.52" width="28.80" height="28.80" rx="5.76" fill="#FEDA4A" stroke="#F0B400" stroke-width="2.88"/><rect x="336.32" y="272.32" width="19.20" height="19.20" rx="3.84" fill="#FFEF9A"/><rect x="337.28" y="277.12" width="4.80" height="4.80" fill="#E52B20" fill-opacity="0.8"/><rect x="342.08" y="277.12" width="4.80" height="4.80" fill="#E52B20" fill-opacity="0.8"/><rect x="346.88" y="277.12" width="4.80" height="4.80" fill="#E52B20" fill-opacity="0.8"/><rect x="337.28" y="281.92" width="4.80" height="4.80" fill="#E52B20" fill-opacity="0.8"/><rect x="342.08" y="281.92" width="4.80" height="4.80" fill="#E52B20" fill-opacity="0.8"/><rect x="346.88" y="281.92" width="4.80" height="4.80" fill="#E52B20" fill-opacity="0.8"/><rect x="342.08" y="286.72" width="4.80" height="4.80" fill="#E52B20" fill-opacity="0.8"/><rect x="342.08" y="291.52" width="4.80" height="4.80" fill="#E52B20" fill-opacity="0.8"/></g>
<g><path d="M430.61,283.25L422.09,289.98 425.03,300.43 416.00,294.40 406.97,300.43 409.91,289.98 401.39,283.25 412.24,282.82 416.00,272.64 419.76,282.82Z" fill="#B085FF" fill-opacity="0.75" stroke="#FFFFFF" stroke-width="1.2"/></g>
<g><rect x="459.52" y="267.52" width="28.80" height="28.80" rx="5.76" fill="#FEDA4A" stroke="#F0B400" stroke-width="2.88"/><rect x="464.32" y="272.32" width="19.20" height="19.20" rx="3.84" fill="#FFEF9A"/><rect x="465.28" y="277.12" width="4.80" height="4.80" fill="#E52B20" fill-opacity="0.8"/><rect x="470.08" y="277.12" width="4.80" height="4.80" fill="#E52B20" fill-opacity="0.8"/><rect x="474.88" y="277.12" width="4.80" height="4.80" fill="#E52B20" fill-opacity="0.8"/><rect x="465.28" y="281.92" width="4.80" height="4.80" fill="#E52B20" fill-opacity="0.8"/><rect x="470.08" y="281.92" width="4.80" height="4.80" fill="#E52B20" fill-opacity="0.8"/><rect x="474.88" y="281.92" width="4.80" height="4.80" fill="#E52B20" fill-opacity="0.8"/><rect x="470.08" y="286.72" width="4.80" height="4.80" fill="#E52B20" fill-opacity="0.8"/><rect x="470.08" y="291.52" width="4.80" height="4.80" fill="#E52B20" fill-opacity="0.8"/></g>
<g><rect x="11.52" y="331.52" width="28.80" height="28.80" rx="5.76" fill="#FEDA4A" stroke="#F0B400" stroke-width="2.88"/><rect x="16.32" y="336.32" width="19.20" height="19.20" rx="3.84" fill="#FFEF9A"/><rect x="17.28" y="341.12" width="4.80" height="4.80" fill="#E52B20" fill-opacity="0.8"/><rect x="22.08" y="341.12" width="4.80" height="4.80" fill="#E52B20" fill-opacity="0.8"/><rect x="26.88" y="341.12" width="4.80" height="4.80" fill="#E52B20" fill-opacity="0.8"/><rect x="17.28" y="345.92" width="4.80" height="4.80" fill="#E52B20" fill-opacity="0.8"/><rect x="22.08" y="345.92" width="4.80" height="4.80" fill="#E52B20" fill-opacity="0.8"/><rect x="26.88" y="345.92" width="4.80" height="4.80" fill="#E52B20" fill-opacity="0.8"/><rect x="22.08" y="350.72" width="4.80" height="4.80" fill="#E52B20" fill-opacity="0.8"/><rect x="22.08" y="355.52" width="4.80" height="4.80" fill="#E52B20" fill-opacity="0.8"/></g>
<g><path d="M110.61,347.25L102.09,353.98 105.03,364.43 96.00,358.40 86.97,364.43 89.91,353.98 81.39,347.25 92.24,346.82 96.00,336.64 99.76,346.82Z" fill="#FF7F3F" fill-opacity="0.75" stroke="#FFFFFF" stroke-width="1.2"/></g>
<g><rect x="139.52" y="331.52" width="28.80" height="28.80" rx="5.76" fill="#FEDA4A" stroke="#F0B400" stroke-width="2.88"/><rect x="144.32" y="336.32" width="19.20" height="19.20" rx="3.84" fill="#FFEF9A"/><rect x="145.28" y="341.12" width="4.80" height="4.80" fill="#E52B20" fill-opacity="0.8"/><rect x="150.08" y="341.12" width="4.80" height="4.80" fill="#E52B20" fill-opacity="0.8"/><rect x="154.88" y="341.12" width="4.80" height="4.80" fill="#E52B20" fill-opacity="0.8"/><rect x="145.28" y="345.92" width="4.80" height="4.80" fill="#E52B20" fill-opacity="0.8"/><rect x="150.08" y="345.92" width="4.80" height="4.80" fill="#E52B20" fill-opacity="0.8"/><rect x="154.88" y="345.92" width="4.80" height="4.80" fill="#E52B20" fill-opacity="0.8"/><rect x="150.08" y="350.72" width="4.80" height="4.80" fill="#E52B20" fill-opacity="0.8"/><rect x="150.08" y="355.52" width="4.80" height="4.80" fill="#E52B20" fill-opacity="0.8"/></g>
<g><path d="M238.61,347.25L230.09,353.98 233.03,364.43 224.00,358.40 214.97,364.43 217.91,353.98 209.39,347.25 220.24,346.82 224.00,336.64 227.76,346.82Z" fill="#00F6FF" fill-opacity="0.75" stroke="#FFFFFF" stroke-width="1.2"/></g>
<g><rect x="267.52" y="331.52" width="28.80" height="28.80" rx="5.76" fill="#FEDA4A" stroke="#F0B400" stroke-width="2.88"/><rect x="272.32" y="336.32" width="19.20" height="19.20" rx="3.84" fill="#FFEF9A"/><rect x="273.28" y="341.12" width="4.80" height="4.80" fill="#E52B20" fill-opacity="0.8"/><rect x="278.08" y="341.12" width="4.80" height="4.80" fill="#E52B20" fill-opacity="0.8"/><rect x="282.88" y="341.12" width="4.80" height="4.80" fill="#E52B20" fill-opacity="0.8"/><rect x="273.28" y="345.92" width="4.80" height="4.80" fill="#E52B20" fill-opacity="0.8"/><rect x="278.08" y="345.92" width="4.80" height="4.80" fill="#E52B20" fill-opacity="0.8"/><rect x="282.88" y="345.92" width="4.80" height="4.80" fill="#E52B20" fill-opacity="0.8"/><rect x="278.08" y="350.72" width="4.80" height="4.80" fill="#E52B20" fill-opacity="0.8"/><rect x="278.08" y="355.52" width="4.80" height="4.80" fill="#E52B20" fill-opacity="0.8"/></g>
<g><path d="M366.61,347.25L358.09,353.98 361.03,364.43 352.00,358.40 342.97,364.43 345.91,353.98 337.39,347.25 348.24,346.82 352.00,336.64 355.76,346.82Z" fill="#38B653" fill-opacity="0.75" stroke="#FFFFFF" stroke-width="1.2"/></g>
<g><rect x="395.52" y="331.52" width="28.80" height="28.80" rx="5.76" fill="#FEDA4A" stroke="#F0B400" stroke-width="2.88"/><rect x="400.32" y="336.32" width="19.20" height="19.20" rx="3.84" fill="#FFEF9A"/><rect x="401.28" y="341.12" width="4.80" height="4.80" fill="#E52B20" fill-opacity="0.8"/><rect x="406.08" y="341.12" width="4.80" height="4.80" fill="#E52B20" fill-opacity="0.8"/><rect x="410.88" y="341.12" width="4.80" height="4.80" fill="#E52B20" fill-opacity="0.8"/><rect x="401.28" y="345.92" width="4.80" height="4.80" fill="#E52B20" fill-opacity="0.8"/><rect x="406.08" y="345.92" width="4.80" height="4.80" fill="#E52B20" fill-opacity="0.8"/><rect x="410.88" y="345.92" width="4.80" height="4.80" fill="#E52B20" fill-opacity="0.8"/><rect x="406.08" y="350.72" width="4.80" height="4.80" fill="#E52B20" fill-opacity="0.8"/><rect x="406.08" y="355.52" width="4.80" height="4.80" fill="#E52B20" fill-opacity="0.8"/></g>
<g><path d="M494.61,347.25L486.09,353.98 489.03,364.43 480.00,358.40 470.97,364.43 473.91,353.98 465.39,347.25 476.24,346.82 480.00,336.64 483.76,346.82Z" fill="#6D24B2" fill-opacity="0.75" stroke="#FFFFFF" stroke-width="1.2"/></g>
<g><path d="M46.61,411.25L38.09,417.98 41.03,428.43 32.00,422.40 22.97,428.43 25.91,417.98 17.39,411.25 28.24,410.82 32.00,400.64 35.76,410.82Z" fill="#FEDA4A" fill-opacity="0.75" stroke="#FFFFFF" stroke-width="1.2"/></g>
<g><rect x="75.52" y="395.52" width="28.80" height="28.80" rx="5.76" fill="#FEDA4A" stroke="#F0B400" stroke-width="2.88"/><rect x="80.32" y="400.32" width="19.20" height="19.20" rx="3.84" fill="#FFEF9A"/><rect x="81.28" y="405.12" width="4.80" height="4.80" fill="#E52B20" fill-opacity="0.8"/><rect x="86.08" y="405.12" width="4.80" height="4.80" fill="#E52B20" fill-opacity="0.8"/><rect x="90.88" y="405.12" width="4.80" height="4.80" fill="#E52B20" fill-opacity="0.8"/><rect x="81.28" y="409.92" width="4.80" height="4.80" fill="#E52B20" fill-opacity="0.8"/><rect x="86.08" y="409.92" width="4.80" height="4.80" fill="#E52B20" fill-opacity="0.8"/><rect x="90.88" y="409.92" width="4.80" height="4.80" fill="#E52B20" fill-opacity="0.8"/><rect x="86.08" y="414.72" width="4.80" height="4.80" fill="#E52B20" fill-opacity="0.8"/><rect x="86.08" y="419.52" width="4.80" height="4.80" fill="#E52B20" fill-opacity="0.8"/></g>
<g><path d="M174.61,411.25L166.09,417.98 169.03,428.43 160.00,422.40 150.97,428.43 153.91,417.98 145.39,411.25 156.24,410.82 160.00,400.64 163.76,410.82Z" fill="#38A7FF" fill-opacity="0.75" stroke="#FFFFFF" stroke-width="1.2"/></g>
<g><rect x="203.52" y="395.52" width="28.80" height="28.80" rx="5.76" fill="#FEDA4A" stroke="#F0B400" stroke-width="2.88"/><rect x="208.32" y="400.32" width="19.20" height="19.20" rx="3.84" fill="#FFEF9A"/><rect x="209.28" y="405.12" width="4.80" height="4.80" fill="#E52B20" fill-opacity="0.8"/><rect x="214.08" y="405.12" width="4.80" height="4.80" fill="#E52B20" fill-opacity="0.8"/><rect x="218.88" y="405.12" width="4.80" height="4.80" fill="#E52B20" fill-opacity="0.8"/><rect x="209.28" y="409.92" width="4.80" height="4.80" fill="#E52B20" fill-opacity="0.8"/><rect x="214.08" y="409.92" width="4.80" height="4.80" fill="#E52B20" fill-opacity="0.8"/><rect x="218.88" y="409.92" width="4.80" height="4.80" fill="#E52B20" fill-opacity="0.8"/><rect x="214.08" y="414.72" width="4.80" height="4.80" fill="#E52B20" fill-opacity="0.8"/><rect x="214.08" y="419.52" width="4.80" height="4.80" fill="#E52B20" fill-opacity="0.8"/></g>
<g><path d="M302.61,411.25L294.09,417.98 297.03,428.43 288.00,422.40 278.97,428.43 281.91,417.98 273.39,411.25 284.24,410.82 288.00,400.64 291.76,410.82Z" fill="#E52B20" fill-opacity="0.75" stroke="#FFFFFF" stroke-width="1.2"/></g>
<g><rect x="331.52" y="395.52" width="28.80" height="28.80" rx="5.76" fill="#FEDA4A" stroke="#F0B400" stroke-width="2.88"/><rect x="336.32" y="400.32" width="19.20" height="19.20" rx="3.84" fill="#FFEF9A"/><rect x="337.28" y="405.12" width="4.80" height="4.80" fill="#E52B20" fill-opacity="0.8"/><rect x="342.08" y="405.12" width="4.80" height="4.80" fill="#E52B20" fill-opacity="0.8"/><rect x="346.88" y="405.12" width="4.80" height="4.80" fill="#E52B20" fill-opacity="0.8"/><rect x="337.28" y="409.92" width="4.80" height="4.80" fill="#E52B20" fill-opacity="0.8"/><rect x="342.08" y="409.92" width="4.80" height="4.80" fill="#E52B20" fill-opacity="0.8"/><rect x="346.88" y="409.92" width="4.80" height="4.80" fill="#E52B20" fill-opacity="0.8"/><rect x="342.08" y="414.72" width="4.80" height="4.80" fill="#E52B20" fill-opacity="0.8"/><rect x="342.08" y="419.52" width="4.80" height="4.80" fill="#E52B20" fill-opacity="0.8"/></g>
<g><path d="M430.61,411.25L422.09,417.98 425.03,428.43 416.00,422.40 406.97,428.43 409.91,417.98 401.39,411.25 412.24,410.82 416.00,400.64 419.76,410.82Z" fill="#B085FF" fill-opacity="0.75" stroke="#FFFFFF" stroke-width="1.2"/></g>
<g><rect x="459.52" y="395.52" width="28.80" height="28.80" rx="5.76" fill="#FEDA4A" stroke="#F0B400" stroke-width="2.88"/><rect x="464.32" y="400.32" width="19.20" height="19.20" rx="3.84" fill="#FFEF9A"/><rect x="465.28" y="405.12" width="4.80" height="4.80" fill="#E52B20" fill-opacity="0.8"/><rect x="470.08" y="405.12" width="4.80" height="4.80" fill="#E52B20" fill-opacity="0.8"/><rect x="474.88" y="405.12" width="4.80" height="4.80" fill="#E52B20" fill-opacity="0.8"/><rect x="465.28" y="409.92" width="4.80" height="4.80" fill="#E52B20" fill-opacity="0.8"/><rect x="470.08" y="409.92" width="4.80" height="4.80" fill="#E52B20" fill-opacity="0.8"/><rect x="474.88" y="409.92" width="4.80" height="4.80" fill="#E52B20" fill-opacity="0.8"/><rect x="470.08" y="414.72" width="4.80" height="4.80" fill="#E52B20" fill-opacity="0.8"/><rect x="470.08" y="419.52" width="4.80" height="4.80" fill="#E52B20" fill-opacity="0.8"/></g>
<g><rect x="11.52" y="459.52" width="28.80" height="28.80" rx="5.76" fill="#FEDA4A" stroke="#F0B400" stroke-width="2.88"/><rect x="16.32" y="464.32" width="19.20" height="19.20" rx="3.84" fill="#FFEF9A"/><rect x="17.28" y="469.12" width="4.80" height="4.80" fill="#E52B20" fill-opacity="0.8"/><rect x="22.08" y="469.12" width="4.80" height="4.80" fill="#E52B20" fill-opacity="0.8"/><rect x="26.88" y="469.12" width="4.80" height="4.80" fill="#E52B20" fill-opacity="0.8"/><rect x="17.28" y="473.92" width="4.80" height="4.80" fill="#E52B20" fill-opacity="0.8"/><rect x="22.08" y="473.92" width="4.80" height="4.80" fill="#E52B20" fill-opacity="0.8"/><rect x="26.88" y="473.92" width="4.80" height="4.80" fill="#E52B20" fill-opacity="0.8"/><rect x="22.08" y="478.72" width="4.80" height="4.80" fill="#E52B20" fill-opacity="0.8"/><rect x="22.08" y="483.52" width="4.80" height="4.80" fill="#E52B20" fill-opacity="0.8"/></g>
<g><path d="M110.61,475.25L102.09,481.98 105.03,492.43 96.00,486.40 86.97,492.43 89.91,481.98 81.39,475.25 92.24,474.82 96.00,464.64 99.76,474.82Z" fill="#FF7F3F" fill-opacity="0.75" stroke="#FFFFFF" stroke-width="1.2"/></g>
<g><rect x="139.52" y="459.52" width="28.80" height="28.80" rx="5.76" fill="#FEDA4A" stroke="#F0B400" stroke-width="2.88"/><rect x="144.32" y="464.32" width="19.20" height="19.20" rx="3.84" fill="#FFEF9A"/><rect x="145.28" y="469.12" width="4.80" height="4.80" fill="#E52B20" fill-opacity="0.8"/><rect x="150.08" y="469.12" width="4.80" height="4.80" fill="#E52B20" fill-opacity="0.8"/><rect x="154.88" y="469.12" width="4.80" height="4.80" fill="#E52B20" fill-opacity="0.8"/><rect x="145.28" y="473.92" width="4.80" height="4.80" fill="#E52B20" fill-opacity="0.8"/><rect x="150.08" y="473.92" width="4.80" height="4.80" fill="#E52B20" fill-opacity="0.8"/><rect x="154.88" y="473.92" width="4.80" height="4.80" fill="#E52B20" fill-opacity="0.8"/><rect x="150.08" y="478.72" width="4.80" height="4.80" fill="#E52B20" fill-opacity="0.8"/><rect x="150.08" y="483.52" width="4.80" height="4.80" fill="#E52B20" fill-opacity="0.8"/></g>
<g><path d="M238.61,475.25L230.09,481.98 233.03,492.43 224.00,486.40 214.97,492.43 217.91,481.98 209.39,475.25 220.24,474.82 224.00,464.64 227.76,474.82Z" fill="#00F6FF" fill-opacity="0.75" stroke="#FFFFFF" stroke-width="1.2"/></g>
<g><rect x="267.52" y="459.52" width="28.80" height="28.80" rx="5.76" fill="#FEDA4A" stroke="#F0B400" stroke-width="2.88"/><rect x="272.32" y="464.32" width="19.20" height="19.20" rx="3.84" fill="#FFEF9A"/><rect x="273.28" y="469.12" width="4.80" height="4.80" fill="#E52B20" fill-opacity="0.8"/><rect x="278.08" y="469.12" width="4.80" height="4.80" fill="#E52B20" fill-opacity="0.8"/><rect x="282.88" y="469.12" width="4.80" height="4.80" fill="#E52B20" fill-opacity="0.8"/><rect x="273.28" y="473.92" width="4.80" height="4.80" fill="#E52B20" fill-opacity="0.8"/><rect x="278.08" y="473.92" width="4.80" height="4.80" fill="#E52B20" fill-opacity="0.8"/><rect x="282.88" y="473.92" width="4.80" height="4.80" fill="#E52B20" fill-opacity="0.8"/><rect x="278.08" y="478.72" width="4.80" height="4.80" fill="#E52B20" fill-opacity="0.8"/><rect x="278.08" y="483.52" width="4.80" height="4.80" fill="#E52B20" fill-opacity="0.8"/></g>
<g><path d="M366.61,475.25L358.09,481.98 361.03,492.43 352.00,486.40 342.97,492.43 345.91,481.98 337.39,475.25 348.24,474.82 352.00,464.64 355.76,474.82Z" fill="#38B653" fill-opacity="0.75" stroke="#FFFFFF" stroke-width="1.2"/></g>
<g><rect x="395.52" y="459.52" width="28.80" height="28.80" rx="5.76" fill="#FEDA4A" stroke="#F0B400" stroke-width="2.88"/><rect x="400.32" y="464.32" width="19.20" height="19.20" rx="3.84" fill="#FFEF9A"/><rect x="401.28" y="469.12" width="4.80" height="4.80" fill="#E52B20" fill-opacity="0.8"/><rect x="406.08" y="469.12" width="4.80" height="4.80" fill="#E52B20" fill-opacity="0.8"/><rect x="410.88" y="469.12" width="4.80" height="4.80" fill="#E52B20" fill-opacity="0.8"/><rect x="401.28" y="473.92" width="4.80" height="4.80" fill="#E52B20" fill-opacity="0.8"/><rect x="406.08" y="473.92" width="4.80" height="4.80" fill="#E52B20" fill-opacity="0.8"/><rect x="410.88" y="473.92" width="4.80" height="4.80" fill="#E52B20" fill-opacity="0.8"/><rect x="406.08" y="478.72" width="4.80" height="4.80" fill="#E52B20" fill-opacity="0.8"/><rect x="406.08" y="483.52" width="4.80" height="4.80" fill="#E52B20" fill-opacity="0.8"/></g>
<g><path d="M494.61,475.25L486.09,481.98 489.03,492.43 480.00,486.40 470.97,492.43 473.91,481.98 465.39,475.25 476.24,474.82 480.00,464.64 483.76,474.82Z" fill="#6D24B2" fill-opacity="0.75" stroke="#FFFFFF" stroke-width="1.2"/></g>
  
</svg>
