<svg width="512" height="128" viewBox="0 0 512 128" fill="none" xmlns="http://www.w3.org/2000/svg">
  <defs>
    <linearGradient id="retro-water" x1="0" y1="0" x2="0" y2="64" gradientUnits="userSpaceOnUse">
      <stop offset="0" stop-color="#1D6FD5"/>
      <stop offset="1" stop-color="#0B2B69"/>
    </linearGradient>
    <linearGradient id="retro-brush" x1="0" y1="0" x2="64" y2="64" gradientUnits="userSpaceOnUse">
      <stop offset="0" stop-color="#356C3B"/>
      <stop offset="1" stop-color="#244F2B"/>
    </linearGradient>
    <linearGradient id="retro-road" x1="0" y1="0" x2="0" y2="64" gradientUnits="userSpaceOnUse">
      <stop offset="0" stop-color="#454545"/>
      <stop offset="1" stop-color="#2A2A2A"/>
    </linearGradient>
    <linearGradient id="retro-ruin" x1="0" y1="0" x2="64" y2="64" gradientUnits="userSpaceOnUse">
      <stop offset="0" stop-color="#5C4A64"/>
      <stop offset="1" stop-color="#3B2F40"/>
    </linearGradient>
    <linearGradient id="retro-wall" x1="0" y1="0" x2="0" y2="64" gradientUnits="userSpaceOnUse">
      <stop offset="0" stop-color="#3F4E63"/>
      <stop offset="1" stop-color="#263041"/>
    </linearGradient>
    <linearGradient id="retro-floor" x1="0" y1="0" x2="64" y2="64" gradientUnits="userSpaceOnUse">
      <stop offset="0" stop-color="#2E3444"/>
      <stop offset="1" stop-color="#1C222F"/>
    </linearGradient>
    <linearGradient id="retro-door" x1="0" y1="0" x2="0" y2="64" gradientUnits="userSpaceOnUse">
      <stop offset="0" stop-color="#8C5E3A"/>
      <stop offset="1" stop-color="#5B3B25"/>
    </linearGradient>
    <linearGradient id="retro-building" x1="0" y1="0" x2="64" y2="64" gradientUnits="userSpaceOnUse">
      <stop offset="0" stop-color="#717D8F"/>
      <stop offset="1" stop-color="#424B58"/>
    </linearGradient>
  </defs>

  <!-- Sand -->
  <g transform="translate(0 0)">
    <rect width="64" height="64" fill="#C9A96A"/>
    <path d="M4 20C12 16 20 14 28 16C36 18 46 14 60 8V0H0V28C3 26 4 23 4 20Z" fill="#D9B87C" fill-opacity="0.6"/>
    <path d="M8 44C18 40 28 42 36 46C44 50 54 50 60 46V64H0V48C3 46 6 45 8 44Z" fill="#B68F4A" fill-opacity="0.5"/>
    <circle cx="14" cy="30" r="3" fill="#B68F4A"/>
    <circle cx="46" cy="24" r="2.5" fill="#B68F4A"/>
    <circle cx="34" cy="36" r="2" fill="#B68F4A"/>
  </g>

  <!-- Rock -->
  <g transform="translate(64 0)">
    <rect width="64" height="64" fill="#6F7C88"/>
    <path d="M12 46L6 32L20 14L34 10L52 20L58 34L48 52H22L12 46Z" fill="#56616D"/>
    <path d="M26 28L20 36L28 48H42L48 36L40 26L26 28Z" fill="#7F8D99"/>
    <path d="M10 20L22 10L16 8L6 16L10 20Z" fill="#92A0AD" opacity="0.4"/>
    <path d="M46 14L52 18L58 30L54 30L46 14Z" fill="#92A0AD" opacity="0.35"/>
  </g>

  <!-- Water -->
  <g transform="translate(128 0)">
    <rect width="64" height="64" fill="url(#retro-water)"/>
    <path d="M0 20C12 22 20 18 28 20C36 22 44 18 56 20C60 21 62 22 64 24V32C52 30 44 34 36 32C28 30 20 34 8 32C4 31 2 30 0 28V20Z" fill="#3FA7FF" fill-opacity="0.5"/>
    <path d="M0 44C12 46 20 42 28 44C36 46 44 42 56 44C60 45 62 46 64 48V56C52 54 44 58 36 56C28 54 20 58 8 56C4 55 2 54 0 52V44Z" fill="#3FA7FF" fill-opacity="0.45"/>
    <rect y="6" width="64" height="4" fill="#3FA7FF" fill-opacity="0.35"/>
  </g>

  <!-- Brush -->
  <g transform="translate(192 0)">
    <rect width="64" height="64" fill="url(#retro-brush)"/>
    <path d="M8 54L14 32L22 44L28 28L36 46L44 24L52 48L56 36L60 54H8Z" fill="#4EB263"/>
    <path d="M10 52C16 46 18 38 22 36C26 34 30 44 36 42C42 40 46 28 52 34C58 40 58 48 60 54H10Z" fill="#18421D" opacity="0.35"/>
    <circle cx="18" cy="18" r="4" fill="#4EB263" opacity="0.65"/>
    <circle cx="46" cy="16" r="3" fill="#4EB263" opacity="0.5"/>
  </g>

  <!-- Road -->
  <g transform="translate(256 0)">
    <rect width="64" height="64" fill="url(#retro-road)"/>
    <rect x="26" y="8" width="12" height="48" fill="#1A1A1A"/>
    <rect x="30" y="10" width="4" height="6" fill="#E7E2B8"/>
    <rect x="30" y="26" width="4" height="8" fill="#E7E2B8"/>
    <rect x="30" y="46" width="4" height="8" fill="#E7E2B8"/>
    <path d="M4 0H12L8 8H0L4 0ZM52 0H60L64 8H56L52 0Z" fill="#626262"/>
    <path d="M4 64H12L8 56H0L4 64ZM52 64H60L64 56H56L52 64Z" fill="#626262"/>
  </g>

  <!-- Ruin -->
  <g transform="translate(320 0)">
    <rect width="64" height="64" fill="url(#retro-ruin)"/>
    <path d="M8 52L16 24L26 28L32 12L42 18L46 8L56 12V52H8Z" fill="#2B1F31" opacity="0.55"/>
    <rect x="14" y="36" width="12" height="12" fill="#80678A"/>
    <path d="M12 18L20 14" stroke="#A78BB4" stroke-width="3" stroke-linecap="round"/>
    <path d="M32 22L46 16" stroke="#A78BB4" stroke-width="3" stroke-linecap="round"/>
    <path d="M24 48L34 42" stroke="#A78BB4" stroke-width="3" stroke-linecap="round"/>
  </g>

  <!-- Wall -->
  <g transform="translate(384 0)">
    <rect width="64" height="64" fill="url(#retro-wall)"/>
    <g fill="#465775">
      <rect x="0" y="0" width="64" height="12"/>
      <rect x="0" y="24" width="64" height="12"/>
      <rect x="0" y="48" width="64" height="12"/>
    </g>
    <g fill="#2B3547">
      <rect x="-2" y="12" width="34" height="12"/>
      <rect x="30" y="12" width="36" height="12"/>
      <rect x="-2" y="36" width="36" height="12"/>
      <rect x="30" y="36" width="36" height="12"/>
    </g>
    <g fill="#546585">
      <rect x="6" y="4" width="16" height="4" rx="2"/>
      <rect x="38" y="4" width="16" height="4" rx="2"/>
      <rect x="6" y="28" width="16" height="4" rx="2"/>
      <rect x="38" y="28" width="16" height="4" rx="2"/>
      <rect x="6" y="52" width="16" height="4" rx="2"/>
      <rect x="38" y="52" width="16" height="4" rx="2"/>
    </g>
  </g>

  <!-- Floor -->
  <g transform="translate(448 0)">
    <rect width="64" height="64" fill="url(#retro-floor)"/>
    <g stroke="#141A25" stroke-width="2">
      <path d="M0 16H64"/>
      <path d="M0 32H64"/>
      <path d="M0 48H64"/>
      <path d="M16 0V64"/>
      <path d="M32 0V64"/>
      <path d="M48 0V64"/>
    </g>
    <g opacity="0.45">
      <rect x="2" y="2" width="12" height="12" fill="#3A4256"/>
      <rect x="18" y="18" width="12" height="12" fill="#3A4256"/>
      <rect x="34" y="2" width="12" height="12" fill="#3A4256"/>
      <rect x="50" y="18" width="12" height="12" fill="#3A4256"/>
      <rect x="2" y="34" width="12" height="12" fill="#3A4256"/>
      <rect x="34" y="34" width="12" height="12" fill="#3A4256"/>
      <rect x="18" y="50" width="12" height="12" fill="#3A4256"/>
      <rect x="50" y="50" width="12" height="12" fill="#3A4256"/>
    </g>
  </g>

  <!-- Door -->
  <g transform="translate(0 64)">
    <rect width="64" height="64" fill="url(#retro-door)"/>
    <rect x="6" y="6" width="52" height="52" rx="6" fill="#6F462A" stroke="#2A170D" stroke-width="4"/>
    <rect x="18" y="18" width="28" height="32" fill="#8F5D36" stroke="#2A170D" stroke-width="3"/>
    <circle cx="40" cy="34" r="3" fill="#D9C77C"/>
    <path d="M12 52L18 44" stroke="#2A170D" stroke-width="3" stroke-linecap="round"/>
  </g>

  <!-- Building -->
  <g transform="translate(64 64)">
    <rect width="64" height="64" fill="url(#retro-building)"/>
    <rect x="6" y="10" width="52" height="44" rx="6" fill="#222836" stroke="#0E121A" stroke-width="4"/>
    <rect x="18" y="18" width="28" height="20" fill="#596575"/>
    <g fill="#9DB4C8">
      <rect x="20" y="20" width="8" height="8" rx="1"/>
      <rect x="34" y="20" width="8" height="8" rx="1"/>
      <rect x="20" y="30" width="8" height="6" rx="1"/>
      <rect x="34" y="30" width="8" height="6" rx="1"/>
    </g>
    <rect x="28" y="40" width="8" height="12" fill="#8C5436"/>
    <path d="M10 54H54L48 62H16L10 54Z" fill="#1A1F2A"/>
  </g>

  <!-- Empty slots for future tiles -->
  <g transform="translate(128 64)" opacity="0.12">
    <rect width="64" height="64" fill="#202737" stroke="#0F131B" stroke-dasharray="6 6"/>
    <path d="M18 32H46" stroke="#0F131B" stroke-width="4" stroke-linecap="round"/>
    <path d="M32 18V46" stroke="#0F131B" stroke-width="4" stroke-linecap="round"/>
  </g>
  <g transform="translate(192 64)" opacity="0.12">
    <rect width="64" height="64" fill="#202737" stroke="#0F131B" stroke-dasharray="6 6"/>
    <path d="M16 22L48 42" stroke="#0F131B" stroke-width="4" stroke-linecap="round"/>
    <path d="M48 22L16 42" stroke="#0F131B" stroke-width="4" stroke-linecap="round"/>
  </g>
  <g transform="translate(256 64)" opacity="0.12">
    <rect width="64" height="64" fill="#202737" stroke="#0F131B" stroke-dasharray="6 6"/>
    <rect x="20" y="20" width="24" height="24" stroke="#0F131B" stroke-width="4" stroke-dasharray="4 6"/>
  </g>
  <g transform="translate(320 64)" opacity="0.12">
    <rect width="64" height="64" fill="#202737" stroke="#0F131B" stroke-dasharray="6 6"/>
    <circle cx="32" cy="32" r="18" stroke="#0F131B" stroke-width="4" stroke-dasharray="5 7"/>
  </g>
  <g transform="translate(384 64)" opacity="0.12">
    <rect width="64" height="64" fill="#202737" stroke="#0F131B" stroke-dasharray="6 6"/>
    <path d="M16 32H48" stroke="#0F131B" stroke-width="4" stroke-dasharray="4 6" stroke-linecap="round"/>
    <path d="M32 16V48" stroke="#0F131B" stroke-width="4" stroke-dasharray="4 6" stroke-linecap="round"/>
  </g>
  <g transform="translate(448 64)" opacity="0.12">
    <rect width="64" height="64" fill="#202737" stroke="#0F131B" stroke-dasharray="6 6"/>
    <path d="M20 20L44 44" stroke="#0F131B" stroke-width="4" stroke-dasharray="4 6" stroke-linecap="round"/>
    <path d="M44 20L20 44" stroke="#0F131B" stroke-width="4" stroke-dasharray="4 6" stroke-linecap="round"/>
  </g>
</svg>
