<svg width="128" height="128" viewBox="0 0 128 128" fill="none" xmlns="http://www.w3.org/2000/svg">
  <defs>
    <linearGradient id="grad-trainer-icon" x1="0" y1="0" x2="0" y2="1" gradientUnits="objectBoundingBox">
      <stop offset="0" stop-color="#38A7FF"/>
      <stop offset="1" stop-color="#1F2F98"/>
    </linearGradient>
    <linearGradient id="shine-trainer-icon" x1="0" y1="0" x2="0" y2="1" gradientUnits="objectBoundingBox">
      <stop offset="0" stop-color="#FFFFFF" stop-opacity="0.65"/>
      <stop offset="0.5" stop-color="#FFFFFF" stop-opacity="0.2"/>
      <stop offset="1" stop-color="#FFFFFF" stop-opacity="0"/>
    </linearGradient>
    <pattern id="grid-trainer-icon" width="8" height="8" patternUnits="userSpaceOnUse">
      <rect width="8" height="8" fill="#FFFFFF" fill-opacity="0.05"/>
      <rect width="4" height="4" fill="#000000" fill-opacity="0.12"/>
      <rect x="4" y="4" width="4" height="4" fill="#000000" fill-opacity="0.08"/>
    </pattern>
    <radialGradient id="spark-trainer-icon" cx="0.5" cy="0.5" r="0.6">
      <stop offset="0" stop-color="#FFFFFF" stop-opacity="0.9"/>
      <stop offset="1" stop-color="#FFFFFF" stop-opacity="0"/>
    </radialGradient>
  </defs>

    <circle cx="64" cy="64" r="64" fill="#05060F"/>
    <circle cx="64" cy="64" r="58" fill="url(#grad-trainer-icon)" stroke="#38A7FF" stroke-width="6"/>
    <circle cx="64" cy="64" r="52.20" fill="url(#grid-trainer-icon)" fill-opacity="0.35"/>
    <path d="M29.20 29.20C25.60 6.40 102.40 6.40 98.80 29.20" stroke="#FEDA4A" stroke-width="6" fill="none" stroke-linecap="round"/>
    <rect x="37.90" y="64.00" width="52.20" height="17.40" rx="6.96" fill="#FF7F3F" stroke="#F36228" stroke-width="3"/>
    <path d="M44.91,25.73L33.87,34.69 37.53,48.42 25.60,40.70 13.67,48.42 17.33,34.69 6.29,25.73 20.49,24.96 25.60,11.70 30.71,24.96Z" fill="#FEDA4A" stroke="#F3A400" stroke-width="3"/>
  
</svg>
