<svg width="200" height="80" viewBox="0 0 200 80" fill="none" xmlns="http://www.w3.org/2000/svg">
  <defs>
    <linearGradient id="text-weather-text-treatment" x1="0" y1="0" x2="1" y2="0">
      <stop offset="0" stop-color="#FEDA4A"/>
      <stop offset="1" stop-color="#FF7F3F"/>
    </linearGradient>
  </defs>

    <rect x="1" y="1" width="198.00" height="78.00" rx="32" fill="#05060F" stroke="#38A7FF" stroke-width="2"/>
    <rect x="6" y="6" width="188.00" height="68.00" rx="28" fill="url(#text-weather-text-treatment)" fill-opacity="0.85"/>
    <g transform="translate(30.00 20.00)"><rect x="0.00" y="0.00" width="40.00" height="40.00" rx="8.00" fill="#FEDA4A" stroke="#F0B400" stroke-width="4.00"/><rect x="6.67" y="6.67" width="26.67" height="26.67" rx="5.33" fill="#FFEF9A"/><rect x="8.00" y="13.33" width="6.67" height="6.67" fill="#E52B20" fill-opacity="0.8"/><rect x="14.67" y="13.33" width="6.67" height="6.67" fill="#E52B20" fill-opacity="0.8"/><rect x="21.33" y="13.33" width="6.67" height="6.67" fill="#E52B20" fill-opacity="0.8"/><rect x="8.00" y="20.00" width="6.67" height="6.67" fill="#E52B20" fill-opacity="0.8"/><rect x="14.67" y="20.00" width="6.67" height="6.67" fill="#E52B20" fill-opacity="0.8"/><rect x="21.33" y="20.00" width="6.67" height="6.67" fill="#E52B20" fill-opacity="0.8"/><rect x="14.67" y="26.67" width="6.67" height="6.67" fill="#E52B20" fill-opacity="0.8"/><rect x="14.67" y="33.33" width="6.67" height="6.67" fill="#E52B20" fill-opacity="0.8"/></g>
  
</svg>
